<svg width="31" height="43" viewBox="0 0 31 43" fill="none" xmlns="http://www.w3.org/2000/svg">
<path d="M10.8875 42.7135L0.746681 4.86734L12.7941 1.63925C17.6553 0.336693 21.4606 0.377532 24.2101 1.76177C26.9949 3.13657 28.8512 5.5555 29.7791 9.01855C30.3283 11.0681 30.3864 13.1167 29.9534 15.1643C29.5204 17.2119 28.3763 19.0713 26.521 20.7426C24.701 22.4043 21.9592 23.7261 18.2956 24.7077L14.8611 25.628L18.8663 40.5756L10.8875 42.7135ZM5.14068 38.1746L3.763 33.033L24.1062 27.5821L25.4838 32.7236L5.14068 38.1746ZM2.65518 28.8985L0.89402 22.3258L16.376 18.1774L18.1371 24.7502L2.65518 28.8985ZM15.7419 18.3473C17.2566 17.9415 18.5174 17.4332 19.5242 16.8226C20.5215 16.1766 21.2202 15.4023 21.6202 14.4998C22.0202 13.5973 22.0687 12.5806 21.7657 11.4498C21.3301 9.82428 20.4974 8.75968 19.2676 8.25598C18.0282 7.71695 16.3165 7.74004 14.1325 8.32525L10.4866 9.30217L13.0999 19.0553L15.7419 18.3473Z" fill="#DA0916"/>
</svg>
