<svg width="54" height="55" viewBox="0 0 54 55" fill="none" xmlns="http://www.w3.org/2000/svg">
<g clip-path="url(#clip0_565_14352)">
<path d="M34.6841 8.4157L10.7774 14.8215C9.72067 15.1046 8.8197 15.796 8.27269 16.7434C7.72568 17.6909 7.57744 18.8168 7.8606 19.8735L14.2664 43.7802C14.5495 44.8369 15.2409 45.7379 16.1883 46.2849C17.1358 46.8319 18.2617 46.9802 19.3184 46.697L43.2251 40.2913C44.2818 40.0081 45.1828 39.3168 45.7298 38.3693C46.2768 37.4219 46.4251 36.2959 46.1419 35.2392L39.7361 11.3325C39.453 10.2758 38.7617 9.3748 37.8142 8.82779C36.8668 8.28078 35.7408 8.13255 34.6841 8.4157Z" fill="#DA0916" stroke="#DA0916" stroke-width="2" stroke-linecap="round" stroke-linejoin="round"/>
<path d="M33.1917 18.7804L25.594 35.0512L19.3892 31.0198" stroke="white" stroke-width="3" stroke-linecap="round" stroke-linejoin="round"/>
</g>
<defs>
<clipPath id="clip0_565_14352">
<rect width="44" height="44" fill="white" transform="translate(0.0585938 12) rotate(-15)"/>
</clipPath>
</defs>
</svg>
