<svg width="83" height="63" viewBox="0 0 83 63" fill="none" xmlns="http://www.w3.org/2000/svg">
<rect y="20" width="74" height="44" rx="20" transform="rotate(-15 0 20)" fill="white"/>
<g clip-path="url(#clip0_565_14343)">
<path d="M25.4564 44.4958C25.6486 44.4443 25.8124 44.3186 25.9118 44.1464C26.0113 43.9741 26.0382 43.7694 25.9868 43.5772C25.9353 43.3851 25.8096 43.2213 25.6373 43.1218C25.465 43.0224 25.2603 42.9954 25.0682 43.0469C24.8761 43.0984 24.7122 43.2241 24.6128 43.3964C24.5133 43.5686 24.4864 43.7733 24.5379 43.9655C24.5893 44.1576 24.715 44.3214 24.8873 44.4209C25.0596 44.5203 25.2643 44.5473 25.4564 44.4958Z" stroke="#616161" stroke-width="2" stroke-linecap="round" stroke-linejoin="round"/>
<path d="M35.597 41.7782C35.7892 41.7267 35.953 41.601 36.0525 41.4288C36.1519 41.2565 36.1789 41.0518 36.1274 40.8597C36.0759 40.6675 35.9502 40.5037 35.7779 40.4042C35.6057 40.3048 35.401 40.2778 35.2088 40.3293C35.0167 40.3808 34.8529 40.5065 34.7534 40.6788C34.654 40.851 34.627 41.0557 34.6785 41.2479C34.73 41.44 34.8557 41.6038 35.0279 41.7033C35.2002 41.8027 35.4049 41.8297 35.597 41.7782Z" stroke="#616161" stroke-width="2" stroke-linecap="round" stroke-linejoin="round"/>
<path d="M15.3906 30.111L18.2884 29.3345L23.7617 41.0677L35.3528 37.9619" stroke="#616161" stroke-width="2" stroke-linecap="round" stroke-linejoin="round"/>
<path d="M22.9838 38.1699L34.2774 35.1438C34.3614 35.1217 34.435 35.071 34.4858 35.0006C34.5366 34.9301 34.5614 34.8443 34.5559 34.7576L34.1129 27.8882C34.1092 27.8326 34.0932 27.7786 34.0661 27.73C34.039 27.6814 34.0014 27.6394 33.9561 27.6071C33.9108 27.5747 33.8589 27.5529 33.8041 27.543C33.7493 27.5332 33.693 27.5357 33.6393 27.5502L19.5938 31.3137" stroke="#616161" stroke-width="2" stroke-linecap="round" stroke-linejoin="round"/>
</g>
<rect x="41.2266" y="19.3065" width="24" height="24" rx="12" transform="rotate(-15 41.2266 19.3065)" fill="#DA0916"/>
<path d="M60.8101 32.6936L53.3393 34.6954L52.9814 33.3597L55.065 29.6956C55.4674 28.9838 55.7926 28.3764 56.0406 27.8732C56.2872 27.3649 56.4469 26.9042 56.5195 26.4912C56.5972 26.0767 56.5781 25.6532 56.4622 25.2205C56.3193 24.6873 56.058 24.3259 55.6783 24.1365C55.2973 23.942 54.8552 23.9122 54.3521 24.047C53.8742 24.175 53.4571 24.3892 53.1008 24.6896C52.7482 24.9836 52.4021 25.3621 52.0625 25.8252L50.7756 24.9163C51.0124 24.5725 51.2754 24.2459 51.5645 23.9366C51.8587 23.6259 52.2053 23.3497 52.6042 23.108C53.0019 22.8613 53.4774 22.6637 54.0307 22.5155C54.73 22.3281 55.3674 22.2921 55.943 22.4075C56.5171 22.5179 56.9994 22.758 57.3897 23.1279C57.785 23.4965 58.0615 23.9751 58.2192 24.5637C58.3783 25.1573 58.407 25.7374 58.3053 26.3038C58.2037 26.8703 58.0001 27.4586 57.6945 28.0689C57.3876 28.6742 57.0091 29.3445 56.5591 30.0798L55.1493 32.4553L55.1715 32.5383L60.3936 31.1391L60.8101 32.6936Z" fill="white"/>
<defs>
<clipPath id="clip0_565_14343">
<rect width="24" height="24" fill="white" transform="translate(12.2461 27.0711) rotate(-15)"/>
</clipPath>
</defs>
</svg>
