<svg width="61" height="20" viewBox="0 0 61 20" fill="none" xmlns="http://www.w3.org/2000/svg">
<g clip-path="url(#clip0_63_4370)">
<path d="M39.7315 0.0244141C35.4003 0.0244141 31.5297 2.2906 31.5297 6.47754C31.5297 11.2791 38.3943 11.6108 38.3943 14.023C38.3943 15.0386 37.2413 15.9479 35.2719 15.9479C32.4769 15.9479 30.388 14.6774 30.388 14.6774L29.4941 18.9025C29.4941 18.9025 31.9006 19.9756 35.0955 19.9756C39.8309 19.9756 43.5571 17.5981 43.5571 13.3397C43.5571 8.26591 36.6639 7.94409 36.6639 5.70522C36.6639 4.90947 37.6104 4.03773 39.5742 4.03773C41.7899 4.03773 43.5977 4.96168 43.5977 4.96168L44.4724 0.880997C44.4724 0.880997 42.5055 0.0244141 39.7315 0.0244141ZM0.104903 0.332419L0 0.948368C0 0.948368 1.82218 1.28497 3.46332 1.95652C5.5764 2.7265 5.72698 3.17479 6.08284 4.56707L9.96083 19.658H15.1594L23.1682 0.332419H17.9816L12.8355 13.472L10.7356 2.33424C10.543 1.05956 9.56748 0.332419 8.37343 0.332419H0.104903ZM25.2538 0.332419L21.1851 19.658H26.131L30.1854 0.332357H25.2538V0.332419ZM52.8387 0.332419C51.6461 0.332419 51.0142 0.976968 50.5505 2.10328L43.3044 19.658H48.4911L49.4946 16.7321H55.8134L56.4236 19.658H61L57.0075 0.332419H52.8387ZM53.5132 5.55359L55.0506 12.8055H50.9318L53.5132 5.55359Z" fill="#1434CB"/>
</g>
<defs>
<clipPath id="clip0_63_4370">
<rect width="61" height="20" fill="white"/>
</clipPath>
</defs>
</svg>
