<svg width="158" height="44" viewBox="0 0 158 44" fill="none" xmlns="http://www.w3.org/2000/svg">
<rect width="158" height="44" fill="white"/>
<path d="M150.249 18.8662C151.216 18.8662 152.051 19.0361 152.754 19.376C153.457 19.71 153.999 20.2139 154.38 20.8877C154.761 21.5615 154.951 22.4053 154.951 23.4189V24.9482H148.808C148.837 25.4697 149.03 25.8975 149.388 26.2314C149.751 26.5654 150.284 26.7324 150.987 26.7324C151.608 26.7324 152.177 26.6709 152.692 26.5479C153.214 26.4248 153.75 26.2344 154.301 25.9766V28.4463C153.82 28.6982 153.296 28.8828 152.728 29C152.159 29.1172 151.441 29.1758 150.574 29.1758C149.572 29.1758 148.676 28.9971 147.885 28.6396C147.094 28.2822 146.47 27.7285 146.013 26.9785C145.562 26.2285 145.336 25.2646 145.336 24.0869C145.336 22.8916 145.541 21.9102 145.951 21.1426C146.361 20.3691 146.936 19.7979 147.674 19.4287C148.412 19.0537 149.271 18.8662 150.249 18.8662ZM150.372 21.2041C149.968 21.2041 149.628 21.333 149.353 21.5908C149.083 21.8428 148.925 22.2412 148.878 22.7861H151.831C151.825 22.4932 151.767 22.2266 151.655 21.9863C151.544 21.7461 151.38 21.5557 151.163 21.415C150.952 21.2744 150.688 21.2041 150.372 21.2041Z" fill="#DA0916"/>
<path d="M139.562 18.8662C140.698 18.8662 141.565 19.1562 142.163 19.7363C142.767 20.3164 143.068 21.2451 143.068 22.5225V29H139.632V23.5859C139.632 22.8301 139.529 22.3057 139.324 22.0127C139.125 21.7139 138.826 21.5645 138.428 21.5645C137.871 21.5645 137.484 21.8076 137.268 22.2939C137.057 22.7803 136.951 23.4688 136.951 24.3594V29H133.506V23.5859C133.506 23.1055 133.462 22.7188 133.374 22.4258C133.292 22.127 133.166 21.9102 132.996 21.7754C132.826 21.6348 132.612 21.5645 132.354 21.5645C131.962 21.5645 131.654 21.6846 131.432 21.9248C131.215 22.1592 131.062 22.5049 130.975 22.9619C130.887 23.4189 130.843 23.9785 130.843 24.6406V29H127.406V19.042H129.999L130.5 20.2725H130.597C130.772 20.0029 130.998 19.7627 131.273 19.5518C131.555 19.3408 131.886 19.1738 132.267 19.0508C132.653 18.9277 133.093 18.8662 133.585 18.8662C134.317 18.8662 134.921 18.9893 135.396 19.2354C135.87 19.4814 136.257 19.8213 136.556 20.2549H136.661C136.978 19.8096 137.385 19.4668 137.883 19.2266C138.381 18.9863 138.94 18.8662 139.562 18.8662Z" fill="#DA0916"/>
<path d="M121.414 27.541C121.414 26.9199 121.596 26.4834 121.959 26.2314C122.328 25.9795 122.771 25.8535 123.286 25.8535C123.772 25.8535 124.194 25.9795 124.552 26.2314C124.909 26.4834 125.088 26.9199 125.088 27.541C125.088 28.1328 124.909 28.5605 124.552 28.8242C124.194 29.0879 123.772 29.2197 123.286 29.2197C122.771 29.2197 122.328 29.0879 121.959 28.8242C121.596 28.5605 121.414 28.1328 121.414 27.541Z" fill="#DA0916"/>
<path d="M118.083 26.46C118.394 26.46 118.678 26.4277 118.936 26.3633C119.193 26.2988 119.463 26.2168 119.744 26.1172V28.6221C119.369 28.7861 118.971 28.918 118.549 29.0176C118.133 29.123 117.6 29.1758 116.949 29.1758C116.305 29.1758 115.736 29.0762 115.244 28.877C114.752 28.6719 114.368 28.3203 114.093 27.8223C113.823 27.3184 113.688 26.6182 113.688 25.7217V21.6172H112.484V20.2197L114.014 19.1387L114.901 17.0469H117.151V19.042H119.595V21.6172H117.151V25.4932C117.151 25.8154 117.233 26.0586 117.397 26.2227C117.562 26.3809 117.79 26.46 118.083 26.46Z" fill="#DA0916"/>
<path d="M107.017 18.8662C108.042 18.8662 108.88 19.1562 109.53 19.7363C110.181 20.3164 110.506 21.2451 110.506 22.5225V29H107.069V23.5684C107.069 22.9062 106.973 22.4082 106.779 22.0742C106.592 21.7344 106.287 21.5645 105.865 21.5645C105.215 21.5645 104.778 21.8311 104.556 22.3643C104.333 22.8916 104.222 23.6504 104.222 24.6406V29H100.785V19.042H103.378L103.844 20.3604H103.976C104.187 20.0439 104.438 19.7744 104.731 19.5518C105.024 19.3291 105.361 19.1592 105.742 19.042C106.123 18.9248 106.548 18.8662 107.017 18.8662Z" fill="#DA0916"/>
<path d="M93.7803 18.8662C94.7471 18.8662 95.582 19.0361 96.2852 19.376C96.9883 19.71 97.5303 20.2139 97.9111 20.8877C98.292 21.5615 98.4824 22.4053 98.4824 23.4189V24.9482H92.3389C92.3682 25.4697 92.5615 25.8975 92.9189 26.2314C93.2822 26.5654 93.8154 26.7324 94.5186 26.7324C95.1396 26.7324 95.708 26.6709 96.2236 26.5479C96.7451 26.4248 97.2812 26.2344 97.832 25.9766V28.4463C97.3516 28.6982 96.8271 28.8828 96.2588 29C95.6904 29.1172 94.9727 29.1758 94.1055 29.1758C93.1035 29.1758 92.207 28.9971 91.416 28.6396C90.625 28.2822 90.001 27.7285 89.5439 26.9785C89.0928 26.2285 88.8672 25.2646 88.8672 24.0869C88.8672 22.8916 89.0723 21.9102 89.4824 21.1426C89.8926 20.3691 90.4668 19.7979 91.2051 19.4287C91.9434 19.0537 92.8018 18.8662 93.7803 18.8662ZM93.9033 21.2041C93.499 21.2041 93.1592 21.333 92.8838 21.5908C92.6143 21.8428 92.4561 22.2412 92.4092 22.7861H95.3623C95.3564 22.4932 95.2979 22.2266 95.1865 21.9863C95.0752 21.7461 94.9111 21.5557 94.6943 21.415C94.4834 21.2744 94.2197 21.2041 93.9033 21.2041Z" fill="#DA0916"/>
<path d="M81.167 16.1504C82.333 16.1504 83.3027 16.2939 84.0762 16.5811C84.8496 16.8623 85.4297 17.2842 85.8164 17.8467C86.209 18.4092 86.4053 19.1094 86.4053 19.9473C86.4053 20.4688 86.3174 20.9434 86.1416 21.3711C85.9658 21.7988 85.7139 22.1826 85.3857 22.5225C85.0635 22.8564 84.6768 23.1494 84.2256 23.4014L87.9697 29H84.0322L81.3076 24.3242H80.4287V29H76.957V16.1504H81.167ZM81.1143 18.7783H80.4287V21.7139H81.0791C81.6123 21.7139 82.0488 21.5967 82.3887 21.3623C82.7285 21.1279 82.8984 20.709 82.8984 20.1055C82.8984 19.6895 82.7578 19.3643 82.4766 19.1299C82.1953 18.8955 81.7412 18.7783 81.1143 18.7783Z" fill="#DA0916"/>
<path d="M74.0234 19.042V29H71.4307L71 27.7607H70.7979C70.5928 28.0947 70.332 28.3672 70.0156 28.5781C69.7051 28.7832 69.3594 28.9326 68.9785 29.0264C68.5977 29.126 68.2021 29.1758 67.792 29.1758C67.1416 29.1758 66.5527 29.0498 66.0254 28.7979C65.5039 28.5459 65.0879 28.1504 64.7773 27.6113C64.4727 27.0723 64.3203 26.3779 64.3203 25.5283V19.042H67.7568V24.4824C67.7568 25.127 67.8477 25.6191 68.0293 25.959C68.2168 26.293 68.5215 26.46 68.9434 26.46C69.377 26.46 69.7109 26.3428 69.9453 26.1084C70.1855 25.874 70.3525 25.5283 70.4463 25.0713C70.54 24.6143 70.5869 24.0576 70.5869 23.4014V19.042H74.0234Z" fill="#DA0916"/>
<path d="M62.0107 23.999C62.0107 24.8311 61.8965 25.5693 61.668 26.2139C61.4395 26.8584 61.1084 27.4004 60.6748 27.8398C60.2412 28.2793 59.7168 28.6133 59.1016 28.8418C58.4863 29.0645 57.792 29.1758 57.0186 29.1758C56.2979 29.1758 55.6357 29.0645 55.0322 28.8418C54.4346 28.6133 53.9131 28.2793 53.4678 27.8398C53.0225 27.4004 52.6768 26.8584 52.4307 26.2139C52.1904 25.5693 52.0703 24.8311 52.0703 23.999C52.0703 22.8975 52.2695 21.9658 52.668 21.2041C53.0723 20.4424 53.6465 19.8623 54.3906 19.4639C55.1406 19.0654 56.0342 18.8662 57.0713 18.8662C58.0264 18.8662 58.876 19.0654 59.6201 19.4639C60.3643 19.8623 60.9473 20.4424 61.3691 21.2041C61.7969 21.9658 62.0107 22.8975 62.0107 23.999ZM55.5596 23.999C55.5596 24.5674 55.6094 25.0479 55.709 25.4404C55.8086 25.8271 55.9668 26.123 56.1836 26.3281C56.4063 26.5273 56.6963 26.627 57.0537 26.627C57.4111 26.627 57.6953 26.5273 57.9063 26.3281C58.1172 26.123 58.2695 25.8271 58.3633 25.4404C58.4629 25.0479 58.5127 24.5674 58.5127 23.999C58.5127 23.4307 58.4629 22.9561 58.3633 22.5752C58.2695 22.1943 58.1143 21.9072 57.8975 21.7139C57.6865 21.5205 57.3994 21.4238 57.0361 21.4238C56.5146 21.4238 56.1367 21.6406 55.9023 22.0742C55.6738 22.5078 55.5596 23.1494 55.5596 23.999Z" fill="#DA0916"/>
<path d="M44.9766 20.9141L47.1914 16.1504H50.9531L46.7256 23.9814V29H43.2275V24.0869L39 16.1504H42.7793L44.9766 20.9141Z" fill="#DA0916"/>
<rect x="6" y="9" width="26" height="26" rx="4" fill="#DA0916"/>
<path d="M14.5 20.9412L17.3638 16H20.5L15.946 23.3297V28H13.054V23.4118L8.5 16H11.6549L14.5 20.9412Z" fill="white"/>
<path d="M22.8296 16C24.0223 16 25.0051 16.1313 25.7783 16.394C26.5574 16.6566 27.1357 17.0534 27.5133 17.5841C27.8908 18.1149 28.0796 18.7852 28.0796 19.5951C28.0796 20.1423 27.9658 20.6211 27.738 21.0315C27.5103 21.4419 27.2106 21.7893 26.839 22.0739C26.4675 22.3584 26.0659 22.591 25.6344 22.7715L29.5 28H26.4075L23.2701 23.3953H21.7868V28H19V16H22.8296ZM22.6318 18.0848H21.7868V21.3269H22.6858C23.6087 21.3269 24.268 21.1874 24.6635 20.9083C25.0651 20.6238 25.2658 20.2079 25.2658 19.6607C25.2658 19.0917 25.0501 18.6867 24.6186 18.446C24.1931 18.2052 23.5308 18.0848 22.6318 18.0848Z" fill="white"/>
</svg>
