<svg width="34" height="24" viewBox="0 0 34 24" fill="none" xmlns="http://www.w3.org/2000/svg">
<g clip-path="url(#clip0_63_4363)">
<path d="M20.6019 5.71118H13.626V18.289H20.6019V5.71118Z" fill="#FF5F00"/>
<path d="M14.0689 12C14.0689 9.55557 15.1983 7.22224 17.1029 5.71113C13.6481 2.9778 8.62107 3.5778 5.89715 7.06669C3.19538 10.5334 3.79332 15.5556 7.27019 18.2889C10.1713 20.5778 14.2239 20.5778 17.125 18.2889C15.1983 16.7778 14.0689 14.4445 14.0689 12Z" fill="#EB001B"/>
<path d="M30.0138 12C30.0138 16.4222 26.4483 20 22.0413 20C20.2475 20 18.5202 19.4 17.125 18.2889C20.5797 15.5556 21.1777 10.5334 18.4537 7.04446C18.0551 6.55557 17.6122 6.08891 17.125 5.71113C20.5797 2.9778 25.6068 3.5778 28.3086 7.06669C29.4158 8.46669 30.0138 10.2 30.0138 12Z" fill="#F79E1B"/>
</g>
<defs>
<clipPath id="clip0_63_4363">
<rect width="33.75" height="24" fill="white" transform="translate(0.25)"/>
</clipPath>
</defs>
</svg>
