<svg width="49" height="24" viewBox="0 0 49 24" fill="none" xmlns="http://www.w3.org/2000/svg">
<g clip-path="url(#clip0_63_4340)">
<path d="M42.3253 6.85099V12.7186H40.2218V8.60259H38.1963V12.7186H36.0927V6.85059H42.3253V6.85099Z" fill="black"/>
<path fill-rule="evenodd" clip-rule="evenodd" d="M31.7723 12.928C33.6556 12.928 35.054 11.778 35.054 10.0348C35.054 8.34741 34.0223 7.25181 32.298 7.25181C31.5022 7.25181 30.8456 7.53081 30.3511 8.01221C30.4691 7.01721 31.3139 6.29081 32.244 6.29081C32.4587 6.29081 34.0747 6.28741 34.0747 6.28741L34.9883 4.54541C34.9883 4.54541 32.9597 4.59141 32.0165 4.59141C29.8615 4.62901 28.4059 6.58001 28.4059 8.94941C28.4059 11.7102 29.8256 12.9282 31.7725 12.9282L31.7723 12.928ZM31.784 8.79461C32.4832 8.79461 32.9679 9.25221 32.9679 10.0346C32.9679 10.7386 32.5372 11.319 31.784 11.3206C31.0635 11.3206 30.5788 10.783 30.5788 10.0466C30.5788 9.26401 31.0635 8.79461 31.784 8.79461Z" fill="black"/>
<path d="M26.6938 10.7536C26.6938 10.7536 26.197 11.0388 25.4548 11.0928C24.602 11.118 23.842 10.5814 23.842 9.628C23.842 8.698 24.5127 8.165 25.4335 8.165C25.9982 8.165 26.7452 8.5548 26.7452 8.5548C26.7452 8.5548 27.2917 7.5558 27.5749 7.0562C27.0564 6.6648 26.3658 6.4502 25.5626 6.4502C23.5356 6.4502 21.9655 7.7666 21.9655 9.6162C21.9655 11.4894 23.4412 12.7752 25.5626 12.7362C26.1556 12.7142 26.9737 12.507 27.4723 12.188L26.6938 10.7536Z" fill="black"/>
<path d="M0.827057 5.224L3.74508 10.419V13.5878L0.83047 18.7726L0.827057 5.224Z" fill="#5B57A2"/>
<path d="M12.0311 8.5284L14.7654 6.8592L20.3613 6.854L12.0311 11.9368V8.5284Z" fill="#D90751"/>
<path d="M12.0157 5.1934L12.0311 12.0714L9.10626 10.2814V0L12.0157 5.1934Z" fill="#FAB718"/>
<path d="M20.3613 6.8542L14.7652 6.8594L12.0157 5.1934L9.10626 0L20.3613 6.8542Z" fill="#ED6F26"/>
<path d="M12.0311 18.8014V15.4644L9.10626 13.7084L9.10787 24L12.0311 18.8014Z" fill="#63B22F"/>
<path d="M14.7586 17.1474L3.74488 10.419L0.827057 5.224L20.3494 17.1406L14.7586 17.1474Z" fill="#1487C9"/>
<path d="M9.10806 23.9999L12.0309 18.8013L14.7584 17.1473L20.3492 17.1405L9.10806 23.9999Z" fill="#017F36"/>
<path d="M0.83049 18.7725L9.13016 13.7085L6.33984 12.0033L3.7451 13.5877L0.83049 18.7725Z" fill="#984995"/>
<path d="M23.8426 16.6679C23.7783 16.7495 23.6938 16.8111 23.5924 16.8527C23.4883 16.8948 23.377 16.9163 23.2647 16.9159C23.153 16.9174 23.0419 16.8988 22.9368 16.8611C22.8424 16.8269 22.7561 16.7737 22.6834 16.7047C22.6116 16.6355 22.5552 16.5521 22.5179 16.4599C22.4775 16.3587 22.4574 16.2507 22.4587 16.1419C22.4587 16.0339 22.4773 15.9339 22.5161 15.8393C22.5516 15.7477 22.6056 15.6644 22.6747 15.5945C22.7437 15.525 22.8252 15.4692 22.9149 15.4299C23.0079 15.3899 23.1093 15.3683 23.2207 15.3683C23.3408 15.3683 23.4522 15.3833 23.5536 15.4131C23.655 15.4431 23.7412 15.4931 23.8121 15.5631L23.6888 15.7711C23.6291 15.7172 23.5589 15.6764 23.4826 15.6511C23.4099 15.6277 23.334 15.616 23.2577 15.6163C23.1904 15.6163 23.1261 15.6295 23.0637 15.6543C23.0021 15.679 22.9459 15.7153 22.898 15.7611C22.8491 15.8081 22.8105 15.8648 22.7848 15.9275C22.7556 15.9957 22.7413 16.0693 22.7426 16.1435C22.7426 16.2253 22.7577 16.2985 22.7864 16.3615C22.8153 16.4267 22.8541 16.4815 22.9028 16.5281C22.952 16.5749 23.0093 16.6097 23.0753 16.6331C23.1424 16.658 23.2134 16.6704 23.285 16.6697C23.3761 16.6697 23.4591 16.6513 23.5299 16.6163C23.6002 16.5825 23.6633 16.5356 23.7159 16.4783L23.8426 16.6679ZM24.1906 16.8809V15.3999H24.4576V16.5033L25.3261 15.3999H25.5932V16.8811H25.3261V15.7777L24.4576 16.8811L24.1906 16.8809ZM27.3622 16.6679C27.2965 16.7501 27.2103 16.8139 27.1122 16.8527C27.0081 16.8948 26.8967 16.9163 26.7843 16.9159C26.6727 16.9173 26.5616 16.8988 26.4566 16.8611C26.3621 16.8269 26.2758 16.7737 26.203 16.7047C26.1312 16.6355 26.0748 16.5521 26.0375 16.4599C25.9972 16.3587 25.977 16.2507 25.9783 16.1419C25.9783 16.0339 25.997 15.9339 26.0357 15.8393C26.0731 15.7443 26.1271 15.6629 26.1944 15.5945C26.2633 15.525 26.3448 15.4692 26.4345 15.4299C26.5308 15.3876 26.6351 15.3666 26.7403 15.3683C26.8604 15.3683 26.9719 15.3833 27.0733 15.4131C27.1747 15.4431 27.2608 15.4931 27.3319 15.5631L27.2084 15.7711C27.1489 15.7172 27.0787 15.6763 27.0024 15.6511C26.9297 15.6278 26.8538 15.616 26.7775 15.6163C26.6433 15.6167 26.5145 15.6686 26.4176 15.7611C26.3691 15.8084 26.3306 15.865 26.3044 15.9275C26.2753 15.9957 26.2609 16.0693 26.2622 16.1435C26.2622 16.2253 26.2775 16.2985 26.3062 16.3615C26.3349 16.4267 26.3737 16.4815 26.4227 16.5281C26.4717 16.5749 26.5291 16.6097 26.5952 16.6331C26.661 16.6563 26.7303 16.6697 26.8046 16.6697C26.896 16.6697 26.9771 16.6513 27.0496 16.6163C27.1198 16.5825 27.1829 16.5356 27.2355 16.4783L27.3622 16.6679ZM27.4992 15.3999H28.8694V15.6629H28.3186V16.8809H28.0516V15.6629H27.5008V15.3999H27.4992Z" fill="black"/>
<path fill-rule="evenodd" clip-rule="evenodd" d="M30.1166 16.8657C30.218 16.8341 30.3041 16.7857 30.3784 16.7193L30.2973 16.5129C30.2483 16.5563 30.1824 16.5929 30.1031 16.6229C30.0236 16.6529 29.9341 16.6677 29.8361 16.6677C29.6891 16.6677 29.5674 16.6295 29.471 16.5513C29.3746 16.4729 29.3224 16.3633 29.3104 16.2233H30.4664C30.4787 16.1648 30.4843 16.1051 30.4832 16.0453C30.4845 15.9504 30.4655 15.8562 30.4274 15.7691C30.3928 15.6883 30.3423 15.6153 30.2788 15.5543C30.2145 15.494 30.1386 15.447 30.0557 15.4163C29.969 15.3828 29.8767 15.3659 29.7837 15.3663C29.6586 15.3663 29.5487 15.3879 29.4523 15.4279C29.3615 15.4661 29.2793 15.5221 29.2108 15.5927C29.1442 15.663 29.093 15.7463 29.0606 15.8373C29.0249 15.9343 29.0071 16.0369 29.0082 16.1401C29.0082 16.2567 29.0282 16.3631 29.0656 16.4581C29.1017 16.5502 29.157 16.6335 29.2278 16.7027C29.2971 16.7707 29.3814 16.8225 29.4812 16.8591C29.5881 16.8969 29.7008 16.9154 29.8142 16.9139C29.9168 16.9133 30.0188 16.8969 30.1166 16.8657ZM29.4407 15.7257C29.5234 15.6509 29.6333 15.6143 29.7718 15.6143C29.9019 15.6143 30.0067 15.6493 30.0828 15.7193C30.1589 15.7891 30.1993 15.8857 30.2061 16.0087H29.2937C29.3066 15.8998 29.3589 15.7991 29.4407 15.7257Z" fill="black"/>
<path d="M30.8465 15.3997H31.0898L31.6677 16.1337L32.2151 15.3997H32.4517V16.8809H32.1846V15.8009L31.6643 16.4881H31.6541L31.1135 15.8007V16.8807H30.8465V15.3997Z" fill="black"/>
<path fill-rule="evenodd" clip-rule="evenodd" d="M33.178 15.4047C33.097 15.4258 33.0197 15.4589 32.9485 15.5027L33.0194 15.7127C33.0802 15.6827 33.1411 15.6577 33.2019 15.6361C33.2627 15.6141 33.3405 15.6041 33.4334 15.6041C33.5077 15.6041 33.567 15.6161 33.6125 15.6393C33.6581 15.6609 33.6919 15.6943 33.7155 15.7343C33.7392 15.7743 33.7545 15.8241 33.7629 15.8823C33.7714 15.9405 33.7748 16.0037 33.7748 16.0721C33.7201 16.0342 33.6577 16.0086 33.5921 15.9971C33.5287 15.9846 33.4643 15.9779 33.3997 15.9771C33.3202 15.9771 33.2459 15.9889 33.1748 16.0087C33.1039 16.0287 33.0431 16.0587 32.9941 16.0987C32.944 16.1386 32.9035 16.1892 32.8756 16.2467C32.8459 16.3097 32.8309 16.3786 32.8318 16.4481C32.8318 16.5929 32.874 16.7061 32.9583 16.7861C33.0431 16.8659 33.1545 16.9057 33.2931 16.9057C33.4182 16.9057 33.518 16.8841 33.5939 16.8409C33.67 16.7975 33.7308 16.7477 33.7746 16.6909V16.8825H34.0248V15.9739C34.0248 15.7807 33.9826 15.6311 33.8963 15.5259C33.8119 15.4213 33.6613 15.3679 33.4485 15.3679C33.3539 15.3679 33.2641 15.3813 33.178 15.4047ZM33.6246 16.6047C33.5637 16.6479 33.484 16.6677 33.3862 16.6677C33.2999 16.6677 33.2324 16.6461 33.1852 16.6045C33.1378 16.5613 33.1142 16.5045 33.1142 16.4345C33.1142 16.3933 33.1226 16.3583 33.1413 16.3265C33.1599 16.2947 33.1852 16.2701 33.2139 16.2501C33.2454 16.2292 33.2802 16.214 33.317 16.2051C33.3559 16.1951 33.3947 16.1901 33.4352 16.1901C33.5672 16.1901 33.6802 16.2217 33.7732 16.2881V16.4761C33.7294 16.5251 33.6794 16.5684 33.6246 16.6047ZM36.3822 14.8787C36.4362 14.8539 36.4866 14.8123 36.5342 14.7507L36.3888 14.5427C36.3516 14.5927 36.3095 14.6275 36.2621 14.6459C36.2119 14.6655 36.1598 14.6799 36.1067 14.6891L36.0561 14.6981C36.0119 14.7057 35.9649 14.7141 35.9141 14.7225C35.8326 14.7375 35.7532 14.7621 35.6776 14.7957C35.5575 14.8473 35.4613 14.9171 35.3884 15.0053C35.3155 15.0935 35.2585 15.1933 35.2195 15.3033C35.1801 15.4148 35.1535 15.5303 35.1402 15.6477C35.1266 15.7677 35.1199 15.8823 35.1199 15.9921C35.1199 16.1337 35.1384 16.2617 35.1756 16.3765C35.2129 16.4915 35.2651 16.5879 35.3342 16.6661C35.4037 16.7461 35.4866 16.8061 35.5846 16.8493C35.6826 16.8925 35.7924 16.9141 35.9157 16.9141C36.029 16.9141 36.1338 16.8925 36.2284 16.8525C36.3195 16.8141 36.4022 16.7582 36.4717 16.6879C36.5392 16.6195 36.5934 16.5379 36.6304 16.4465C36.6691 16.3537 36.6887 16.2541 36.688 16.1535C36.688 16.0421 36.6711 15.9407 36.639 15.8507C36.6094 15.7649 36.5622 15.6862 36.5004 15.6195C36.4385 15.554 36.3629 15.5028 36.279 15.4695C36.1865 15.4332 36.0878 15.4152 35.9884 15.4163C35.9241 15.4163 35.8617 15.4247 35.8009 15.4413C35.7417 15.4579 35.6849 15.482 35.6318 15.5129C35.5803 15.5423 35.5331 15.5786 35.4916 15.6209C35.4511 15.6627 35.4173 15.7093 35.3936 15.7625H35.3868C35.3918 15.6921 35.4014 15.6221 35.4155 15.5529C35.4308 15.4813 35.4527 15.4129 35.4816 15.3481C35.5103 15.2833 35.5474 15.2249 35.593 15.1717C35.6419 15.118 35.7018 15.0755 35.7687 15.0469C35.8423 15.012 35.9201 14.9869 36.0002 14.9721L36.0533 14.9625C36.1061 14.9529 36.1565 14.9437 36.2047 14.9337C36.2689 14.9205 36.328 14.9035 36.3822 14.8787ZM35.4424 16.3017C35.4164 16.2177 35.4039 16.1301 35.4055 16.0421C35.4168 15.9916 35.4374 15.9437 35.4663 15.9007C35.4961 15.855 35.5332 15.8144 35.5762 15.7807C35.6754 15.7033 35.7981 15.6617 35.9241 15.6627C36.0814 15.6627 36.1996 15.7107 36.2824 15.8059C36.3653 15.9023 36.4059 16.0219 36.4059 16.1669C36.4059 16.2385 36.3922 16.3035 36.3687 16.3633C36.3459 16.4223 36.3113 16.4762 36.2672 16.5216C36.223 16.5671 36.1701 16.6032 36.1117 16.6279C36.051 16.6545 35.985 16.6679 35.9107 16.6679C35.8364 16.6679 35.7687 16.6529 35.7063 16.6229C35.6442 16.5935 35.5894 16.5509 35.5456 16.4981C35.4998 16.4393 35.465 16.3728 35.4426 16.3017H35.4424ZM38.7359 15.3997H38.4689V16.8809H38.7359V15.3997ZM37.0731 15.3997H37.3402V15.8441H37.587C37.7034 15.8441 37.7978 15.8591 37.8741 15.8873C37.9502 15.9157 38.0111 15.9539 38.0566 16.0005C38.1022 16.0471 38.1343 16.1021 38.153 16.1635C38.1715 16.2251 38.1817 16.2883 38.1817 16.3549C38.1817 16.4215 38.1715 16.4849 38.1496 16.5481C38.1293 16.6113 38.0938 16.6661 38.0464 16.7161C37.9992 16.7661 37.935 16.8061 37.8536 16.8361C37.7727 16.8659 37.6747 16.8825 37.5564 16.8825H37.0715V15.3997H37.0731ZM37.3402 16.0917V16.6345H37.5346C37.6681 16.6345 37.7627 16.6113 37.8167 16.5645C37.8709 16.5179 37.8978 16.4515 37.8978 16.3633C37.8978 16.2733 37.8691 16.2053 37.8151 16.1585C37.7593 16.1119 37.6663 16.0885 37.538 16.0885H37.3402V16.0917Z" fill="black"/>
<path d="M40.5018 16.6679C40.4375 16.7495 40.353 16.8111 40.2516 16.8527C40.1475 16.8948 40.0362 16.9163 39.9239 16.9159C39.8121 16.9174 39.7011 16.8988 39.596 16.8611C39.5015 16.827 39.4152 16.7737 39.3425 16.7047C39.2707 16.6355 39.2143 16.5521 39.1769 16.4599C39.1367 16.3587 39.1166 16.2507 39.1179 16.1419C39.1179 16.0339 39.1363 15.9339 39.1753 15.8393C39.2108 15.7477 39.2647 15.6644 39.3339 15.5945C39.4018 15.5245 39.4825 15.4715 39.5741 15.4299C39.6704 15.3876 39.7747 15.3666 39.8799 15.3683C39.9998 15.3683 40.1114 15.3833 40.2128 15.4131C40.3142 15.4431 40.4004 15.4931 40.4712 15.5631L40.348 15.7711C40.2883 15.7172 40.2181 15.6764 40.1417 15.6511C40.0691 15.6277 39.9932 15.616 39.9168 15.6163C39.8496 15.6163 39.7853 15.6295 39.7227 15.6543C39.6612 15.679 39.605 15.7153 39.5572 15.7611C39.5086 15.8084 39.4701 15.865 39.444 15.9275C39.4148 15.9957 39.4005 16.0693 39.4018 16.1435C39.4018 16.2253 39.4168 16.2985 39.4456 16.3615C39.4743 16.4267 39.5132 16.4815 39.562 16.5281C39.6112 16.5749 39.6684 16.6097 39.7345 16.6331C39.8006 16.6563 39.8698 16.6697 39.9441 16.6697C40.0288 16.6707 40.1126 16.6525 40.1891 16.6163C40.2594 16.5825 40.3225 16.5356 40.3751 16.4783L40.5018 16.6679ZM40.6383 15.3999H42.009V15.6629H41.458V16.8809H41.1909V15.6629H40.6403V15.3999H40.6383Z" fill="black"/>
<path fill-rule="evenodd" clip-rule="evenodd" d="M42.5666 15.3998H42.2995V17.5398H42.5666V16.8126C42.6206 16.8476 42.6848 16.8726 42.7591 16.8892C42.8334 16.9058 42.9111 16.914 42.9907 16.914C43.1089 16.914 43.2153 16.8924 43.3117 16.8526C43.4042 16.8133 43.488 16.7562 43.5583 16.6846C43.6281 16.612 43.6821 16.5258 43.7169 16.4314C43.7543 16.3334 43.773 16.2284 43.773 16.117C43.773 16.007 43.7561 15.9056 43.724 15.814C43.6937 15.7271 43.6467 15.6468 43.5854 15.5778C43.5253 15.5106 43.4508 15.4577 43.3674 15.423C43.2761 15.384 43.1775 15.3647 43.0782 15.3664C42.9738 15.3664 42.8758 15.3864 42.7828 15.4264C42.6899 15.4664 42.6172 15.5144 42.5666 15.5744V15.3998ZM42.7525 15.6744C42.8286 15.6344 42.9111 15.6144 43.0009 15.6144C43.0786 15.6144 43.1479 15.626 43.2105 15.651C43.2714 15.676 43.322 15.711 43.3643 15.7576C43.4065 15.8042 43.4386 15.8576 43.4587 15.9206C43.4808 15.9838 43.4908 16.0522 43.4908 16.127C43.4908 16.207 43.4774 16.2784 43.4539 16.345C43.4318 16.4082 43.3966 16.466 43.3507 16.5148C43.3046 16.5631 43.2487 16.601 43.1868 16.6262C43.1178 16.655 43.0436 16.6692 42.9688 16.6678C42.8963 16.6678 42.8286 16.6596 42.7644 16.643C42.694 16.624 42.6273 16.5936 42.5668 16.553V15.819C42.614 15.7626 42.6766 15.7144 42.7525 15.6744ZM45.8207 15.3996H45.5537V16.8808H45.8207V15.3996ZM44.1565 15.3996H44.4236V15.844H44.6701C44.7866 15.844 44.8814 15.859 44.9573 15.8872C45.0336 15.9156 45.0944 15.9538 45.14 16.0004C45.1856 16.047 45.2177 16.102 45.2362 16.1634C45.2549 16.225 45.2649 16.2882 45.2649 16.3548C45.2649 16.4214 45.2549 16.4848 45.2328 16.548C45.2127 16.6112 45.1772 16.666 45.1298 16.716C45.0826 16.766 45.0183 16.806 44.937 16.836C44.8561 16.8658 44.7581 16.8824 44.6398 16.8824H44.1549V15.3996H44.1565ZM44.4254 16.0916V16.6344H44.6197C44.7531 16.6344 44.8479 16.6112 44.9019 16.5644C44.9559 16.5178 44.983 16.4514 44.983 16.3632C44.983 16.2732 44.9543 16.2052 44.9003 16.1584C44.8444 16.1118 44.7515 16.0884 44.6232 16.0884H44.4254V16.0916Z" fill="black"/>
<path d="M47.1019 16.1137L47.673 16.8809H47.3453L46.9041 16.2817L46.4563 16.8809H46.1455L46.7131 16.1269L46.179 15.3997H46.5071L46.9143 15.9589L47.328 15.3997H47.6392L47.1019 16.1137ZM23.645 18.7115H22.8256V19.9463H22.5585V18.4653H23.9119V19.9463H23.6448L23.645 18.7115ZM25.4275 18.7281H24.9004L24.8834 18.9777C24.8649 19.1891 24.8396 19.3589 24.804 19.4885C24.7685 19.6185 24.7245 19.7183 24.6739 19.7881C24.6233 19.8581 24.5641 19.9061 24.4964 19.9297C24.4266 19.9549 24.3528 19.9673 24.2786 19.9663L24.2583 19.7099C24.2927 19.7106 24.3269 19.7032 24.3579 19.6883C24.3952 19.6717 24.4322 19.6351 24.4677 19.5803C24.5033 19.5235 24.5354 19.4437 24.5641 19.3403C24.5928 19.2357 24.6115 19.0993 24.6215 18.9277L24.6486 18.4667H25.6946V19.9479H25.4275V18.7281Z" fill="black"/>
<path fill-rule="evenodd" clip-rule="evenodd" d="M26.4144 18.4685C26.3281 18.4917 26.2504 18.5249 26.1845 18.5665L26.2556 18.7763C26.3164 18.7463 26.3773 18.7213 26.4379 18.6997C26.4988 18.6781 26.5765 18.6681 26.6694 18.6681C26.7437 18.6681 26.803 18.6797 26.8485 18.7029C26.8943 18.7247 26.9281 18.7579 26.9518 18.7979C26.9752 18.8379 26.9905 18.8879 26.9989 18.9459C27.0074 19.0043 27.0108 19.0675 27.0108 19.1357C26.9561 19.0978 26.8937 19.0723 26.8281 19.0609C26.7647 19.0483 26.7003 19.0416 26.6357 19.0409C26.5564 19.0409 26.4819 19.0525 26.4108 19.0725C26.3399 19.0925 26.2791 19.1225 26.2301 19.1625C26.18 19.2024 26.1395 19.253 26.1116 19.3105C26.082 19.3735 26.0671 19.4423 26.068 19.5119C26.068 19.6565 26.1102 19.7699 26.1945 19.8497C26.2789 19.9295 26.3907 19.9695 26.5293 19.9695C26.6544 19.9695 26.754 19.9479 26.8301 19.9045C26.906 19.8613 26.9666 19.8113 27.0108 19.7545V19.9461H27.261V19.0375C27.261 18.8445 27.2186 18.6947 27.1325 18.5899C27.0479 18.4849 26.8975 18.4319 26.6847 18.4319C26.5934 18.432 26.5025 18.4444 26.4144 18.4685ZM26.8622 19.6681C26.8016 19.7115 26.722 19.7315 26.624 19.7315C26.5361 19.7315 26.4702 19.7099 26.423 19.6681C26.3757 19.6249 26.352 19.5681 26.352 19.4985C26.352 19.4569 26.3604 19.4219 26.3791 19.3903C26.3975 19.3587 26.423 19.3337 26.4518 19.3137C26.4805 19.2937 26.5158 19.2787 26.5548 19.2687C26.5934 19.2588 26.6331 19.2538 26.673 19.2539C26.8048 19.2539 26.918 19.2855 27.011 19.3519V19.5399C26.9671 19.5887 26.9171 19.6319 26.8622 19.6681Z" fill="black"/>
<path d="M27.5227 18.465H28.8931V18.7278H28.3421V19.9458H28.0751V18.7278H27.5245V18.465H27.5227Z" fill="black"/>
<path fill-rule="evenodd" clip-rule="evenodd" d="M30.1403 19.9313C30.2417 19.8997 30.3279 19.8513 30.4021 19.7849L30.321 19.5785C30.272 19.6219 30.2062 19.6585 30.1267 19.6885C30.0473 19.7185 29.9578 19.7333 29.8596 19.7333C29.7128 19.7333 29.5911 19.6951 29.4947 19.6169C29.3983 19.5387 29.3461 19.4289 29.3341 19.2889H30.4901C30.5017 19.2375 30.507 19.1789 30.507 19.1109C30.507 19.0095 30.4883 18.9179 30.4511 18.8347C30.4165 18.754 30.3659 18.681 30.3024 18.6201C30.2381 18.5596 30.1623 18.5126 30.0795 18.4819C29.9927 18.4484 29.9004 18.4315 29.8074 18.4319C29.6823 18.4319 29.5724 18.4535 29.4761 18.4935C29.3851 18.5316 29.303 18.5876 29.2345 18.6583C29.1678 18.7286 29.1166 18.8119 29.0839 18.9029C29.0484 18.9999 29.0307 19.1025 29.0317 19.2057C29.0317 19.3223 29.0518 19.4287 29.0891 19.5237C29.1265 19.6185 29.1821 19.7001 29.2514 19.7683C29.3206 19.8365 29.4052 19.8881 29.505 19.9247C29.6117 19.9625 29.7244 19.9812 29.8377 19.9797C29.9375 19.9797 30.0389 19.9629 30.1403 19.9313ZM29.4628 18.7897C29.5455 18.7149 29.6554 18.6783 29.7939 18.6783C29.9259 18.6783 30.0289 18.7149 30.105 18.7831C30.1809 18.8531 30.2214 18.9495 30.2283 19.0727H29.3158C29.3287 18.9638 29.3809 18.8632 29.4628 18.7897ZM30.6371 18.4653H30.975L31.4903 19.1793L30.9395 19.9463H30.6118L31.1895 19.1791L30.6371 18.4653ZM31.5561 18.4653H31.8232V19.9463H31.5561V18.4653ZM32.7778 19.9463L32.1899 19.1791L32.7391 18.4651H32.4077L31.8891 19.1791L32.4467 19.9463H32.7778ZM33.9979 19.9313C34.0993 19.8997 34.1854 19.8513 34.2597 19.7849L34.1786 19.5785C34.1296 19.6219 34.0637 19.6585 33.9844 19.6885C33.9049 19.7185 33.8153 19.7333 33.7174 19.7333C33.5704 19.7333 33.4487 19.6951 33.3523 19.6169C33.2559 19.5387 33.2037 19.4289 33.1917 19.2889H34.3477C34.3595 19.2375 34.3645 19.1789 34.3645 19.1109C34.3645 19.0095 34.3461 18.9179 34.3087 18.8347C34.2741 18.754 34.2236 18.681 34.1601 18.6201C34.0958 18.5596 34.0199 18.5126 33.937 18.4819C33.8503 18.4484 33.758 18.4314 33.6649 18.4319C33.5401 18.4319 33.43 18.4535 33.3336 18.4935C33.2428 18.5316 33.1607 18.5877 33.0923 18.6583C33.0255 18.7285 32.9742 18.8118 32.9417 18.9029C32.906 18.9999 32.8883 19.1025 32.8895 19.2057C32.8895 19.3223 32.9095 19.4287 32.9469 19.5237C32.984 19.6185 33.0399 19.7001 33.1091 19.7683C33.1784 19.8365 33.2627 19.8881 33.3625 19.9247C33.4694 19.9625 33.5821 19.9812 33.6955 19.9797C33.7982 19.979 33.9001 19.9626 33.9979 19.9313ZM33.3204 18.7897C33.4033 18.7149 33.5131 18.6783 33.6517 18.6783C33.7818 18.6783 33.8864 18.7149 33.9625 18.7831C34.0386 18.8531 34.079 18.9495 34.0858 19.0727H33.1734C33.1863 18.9638 33.2385 18.8632 33.3204 18.7897ZM35.4479 17.9677C35.2906 17.9677 35.2045 17.8811 35.1908 17.7081H34.9392C34.9392 17.7745 34.9511 17.8345 34.973 17.8911C34.995 17.9477 35.0272 17.9959 35.0693 18.0359C35.1115 18.0759 35.1657 18.1075 35.228 18.1323C35.2906 18.1573 35.3633 18.1689 35.446 18.1689C35.516 18.1703 35.5855 18.1579 35.6507 18.1323C35.7115 18.1091 35.7621 18.0759 35.8061 18.0359C35.8491 17.9952 35.8831 17.9458 35.9057 17.8911C35.9294 17.8345 35.9412 17.7745 35.9412 17.7081H35.6912C35.6792 17.8811 35.5964 17.9677 35.4479 17.9677ZM34.7262 18.4651V19.9463H34.9932L35.8617 18.8429V19.9463H36.1288V18.4651H35.8617L34.9932 19.5685V18.4651H34.7262Z" fill="black"/>
</g>
<defs>
<clipPath id="clip0_63_4340">
<rect width="48" height="24" fill="white" transform="translate(0.25)"/>
</clipPath>
</defs>
</svg>
