<svg width="79" height="24" viewBox="0 0 79 24" fill="none" xmlns="http://www.w3.org/2000/svg">
<path d="M6.12247 2.59993H12.64C13.2325 2.59993 15.01 2.39993 15.8 5.19993C16.3925 6.99993 17.1825 9.79993 18.3675 13.9999H18.7625C19.9475 9.59993 20.935 6.59993 21.33 5.19993C22.12 2.39993 24.095 2.59993 24.885 2.59993H31.0075V21.7999H24.6875V10.3999H24.2925L20.935 21.7999H16.195L12.8375 10.3999H12.245V21.7999H6.12247M33.575 2.59993H39.895V13.9999H40.4875L44.635 4.59993C45.425 2.79993 47.2025 2.59993 47.2025 2.59993H53.1275V21.7999H46.8075V10.3999H46.4125L42.265 19.7999C41.475 21.5999 39.5 21.7999 39.5 21.7999H33.575M61.62 15.9999V21.7999H55.695V11.7999H75.05C74.26 14.1999 71.495 15.9999 68.335 15.9999" fill="#0F754E"/>
<path d="M75.445 10.6001C76.235 7.0001 73.865 2.6001 68.73 2.6001H55.3C55.695 6.8001 59.25 10.6001 63.0025 10.6001" fill="url(#paint0_linear_63_4380)"/>
<defs>
<linearGradient id="paint0_linear_63_4380" x1="73.075" y1="9.77516e-05" x2="57.275" y2="9.77516e-05" gradientUnits="userSpaceOnUse">
<stop stop-color="#1F5CD7"/>
<stop offset="1" stop-color="#02AEFF"/>
</linearGradient>
</defs>
</svg>
