<svg width="37" height="24" viewBox="0 0 37 24" fill="none" xmlns="http://www.w3.org/2000/svg">
<g clip-path="url(#clip0_63_4372)">
<path d="M35.1736 0.00717643L26.0628 0.00476074H26.0603C26.0531 0.00476074 26.0464 0.00603216 26.0395 0.00603216C24.7879 0.0449375 23.2289 1.06436 22.945 2.32128L18.6364 21.6802C18.3524 22.949 19.1247 23.9812 20.3673 24.0002H29.9388C31.1622 23.9388 32.3515 22.931 32.6305 21.6884L36.9394 2.32929C37.2278 1.04783 36.437 0.00717643 35.1736 0.00717643Z" fill="#01798A"/>
<path d="M18.6365 21.6797L22.9452 2.32076C23.229 1.06384 24.788 0.0444184 26.0396 0.00551309L22.417 0.00322454L15.8904 0.00195312C14.6353 0.0280171 13.0561 1.05456 12.7723 2.32089L8.46236 21.6797C8.17738 22.9485 8.95093 23.9807 10.1927 23.9997H20.3674C19.1248 23.9807 18.3525 22.9485 18.6365 21.6797Z" fill="#024381"/>
<path d="M8.46233 21.68L12.7722 2.3211C13.0561 1.05477 14.6352 0.0282254 15.8904 0.00216141L7.52938 0C6.26725 0 4.64903 1.03836 4.36054 2.3211L0.0506486 21.68C0.0244794 21.7982 0.00982975 21.914 0.00119019 22.0271V22.3862C0.0855825 23.311 0.78113 23.9845 1.78094 23.9999H10.1926C8.9509 23.9811 8.17735 22.9488 8.46233 21.68Z" fill="#DD0228"/>
<path d="M16.0666 14.1083H16.2249C16.3703 14.1083 16.4681 14.0585 16.514 13.9605L16.9252 13.3357H18.0262L17.7967 13.7467H19.1168L18.9492 14.3764H17.3783C17.1974 14.6528 16.9747 14.7826 16.707 14.7672H15.8887L16.0666 14.1083ZM15.8858 15.0106H18.7783L18.5939 15.6946H17.4306L17.2531 16.3547H18.385L18.2007 17.0387H17.0688L16.8059 18.0143C16.7408 18.1774 16.8264 18.2507 17.0613 18.2341H17.9837L17.8128 18.8698H16.0417C15.706 18.8698 15.5908 18.6748 15.6961 18.2838L16.0323 17.0389H15.3089L15.4927 16.3548H16.2163L16.3937 15.6947H15.702L15.8858 15.0106ZM20.5024 13.3309L20.4569 13.7314C20.4569 13.7314 21.0025 13.3155 21.4979 13.3155H23.3289L22.6287 15.8894C22.5706 16.1836 22.3216 16.3299 21.8818 16.3299H19.8064L19.3204 18.1372C19.2922 18.2341 19.3319 18.2837 19.4366 18.2837H19.845L19.6949 18.8448H18.6568C18.2583 18.8448 18.0925 18.7231 18.1583 18.4786L19.532 13.3309H20.5024ZM22.053 14.0585H20.4186L20.223 14.7531C20.223 14.7531 20.4952 14.5536 20.9501 14.5465C21.4038 14.5393 21.9215 14.5465 21.9215 14.5465L22.053 14.0585ZM21.4607 15.6697C21.5816 15.6863 21.6493 15.6379 21.6573 15.5232L21.7574 15.1572H20.1206L19.9834 15.6697H21.4607ZM20.3569 16.5013H21.3003L21.2827 16.9159H21.5338C21.6608 16.9159 21.7238 16.8746 21.7238 16.7931L21.7982 16.525H22.5824L22.4777 16.9159C22.389 17.2419 22.1543 17.412 21.7726 17.4287H21.27L21.2677 18.1372C21.2585 18.2508 21.3594 18.3086 21.5677 18.3086H22.04L21.8876 18.8698H20.7545C20.4369 18.8851 20.2811 18.7315 20.2845 18.4055L20.3569 16.5013ZM8.92409 9.9019C8.79613 10.5386 8.4995 11.0276 8.03935 11.3748C7.58333 11.7162 6.99534 11.8875 6.27525 11.8875C5.59761 11.8875 5.1009 11.7127 4.78386 11.3619C4.56399 11.1127 4.45468 10.7961 4.45468 10.4134C4.45468 10.2551 4.47334 10.085 4.51053 9.90203L5.27769 6.14589H6.43627L5.67975 9.85931C5.65811 9.95258 5.6476 10.0482 5.64844 10.144C5.64719 10.3342 5.69377 10.4901 5.78793 10.6117C5.92516 10.7925 6.14791 10.8822 6.45806 10.8822C6.81454 10.8822 7.10828 10.7937 7.33629 10.6152C7.5643 10.4379 7.71318 10.1864 7.78004 9.85919L8.53907 6.14551H9.69189L8.92409 9.9019ZM13.79 8.42414H14.6975L13.9866 11.7765H13.081L13.79 8.42414ZM14.0757 7.20282H14.9912L14.8202 8.01652H13.9047L14.0757 7.20282ZM15.5007 11.5213C15.2633 11.2909 15.1435 10.9803 15.1423 10.5858C15.1423 10.5184 15.1463 10.4417 15.1552 10.3578C15.164 10.2728 15.175 10.1901 15.1907 10.1133C15.2982 9.56879 15.5275 9.13651 15.8804 8.81751C16.2329 8.49737 16.6581 8.33679 17.1561 8.33679C17.5638 8.33679 17.8872 8.45262 18.124 8.68402C18.3606 8.91681 18.4792 9.23085 18.4792 9.6302C18.4792 9.69861 18.4741 9.77781 18.4653 9.86287C18.4551 9.94672 18.4425 10.0302 18.4275 10.1133C18.3223 10.6496 18.0938 11.0772 17.7407 11.3902C17.3876 11.7055 16.9635 11.8626 16.4692 11.8626C16.0597 11.8627 15.7375 11.7493 15.5007 11.5213ZM17.23 10.8575C17.39 10.6815 17.5044 10.4145 17.5743 10.0591C17.5848 10.0035 17.5941 9.94564 17.5998 9.88779C17.6056 9.83109 17.608 9.77794 17.608 9.7295C17.608 9.52277 17.5561 9.36219 17.4521 9.24878C17.3487 9.13422 17.2015 9.07752 17.0114 9.07752C16.7601 9.07752 16.5552 9.16715 16.3948 9.34681C16.233 9.52646 16.1183 9.79803 16.0462 10.1595C16.0363 10.2151 16.0282 10.2706 16.0207 10.3249C16.0149 10.3805 16.0132 10.4323 16.0143 10.4796C16.0143 10.6852 16.0661 10.8435 16.1702 10.9557C16.2737 11.0679 16.4202 11.1234 16.6128 11.1234C16.8654 11.1232 17.07 11.0346 17.23 10.8575Z" fill="white"/>
<path d="M26.0604 0.00505052L22.417 0.00390625L26.0396 0.00632194C26.0464 0.00632194 26.0532 0.00505052 26.0604 0.00505052Z" fill="#E02F41"/>
<path d="M22.417 0.00355996L15.9404 0C15.9242 0 15.9073 0.00114427 15.8904 0.00228855L22.417 0.00355996Z" fill="#2E4F7D"/>
<path d="M24.3666 14.1367L24.5854 13.3548H25.6917L25.644 13.6419C25.644 13.6419 26.2092 13.3548 26.6164 13.3548H27.9844L27.767 14.1367H27.5517L26.5199 17.8246H26.7351L26.5304 18.5569H26.3152L26.2256 18.8747H25.1542L25.2436 18.5569H23.13L23.336 17.8246H23.5477L24.5806 14.1367H24.3666ZM25.5603 14.1367L25.2788 15.1348C25.2788 15.1348 25.7606 14.947 26.1758 14.8939C26.2675 14.5455 26.3873 14.1367 26.3873 14.1367H25.5603ZM25.1484 15.6027L24.8658 16.6482C24.8658 16.6482 25.3997 16.3812 25.7661 16.3588C25.8719 15.9547 25.9778 15.6028 25.9778 15.6028L25.1484 15.6027ZM25.3554 17.8246L25.567 17.0662H24.7414L24.5284 17.8246H25.3554ZM28.0309 13.3064H29.0711L29.1153 13.6961C29.1082 13.7952 29.1665 13.8427 29.2898 13.8427H29.4736L29.2877 14.5028H28.5233C28.2315 14.518 28.0814 14.4048 28.0674 14.1603L28.0309 13.3064ZM27.7262 14.7227H31.095L30.8973 15.4316H29.8247L29.6408 16.0905H30.7124L30.5134 16.7981H29.32L29.05 17.2128H29.6343L29.7691 18.0432C29.7851 18.1258 29.8573 18.166 29.9807 18.166H30.162L29.9714 18.8498H29.3292C28.9964 18.8664 28.8245 18.753 28.8104 18.5085L28.6556 17.7501L28.1241 18.5569C27.9984 18.7849 27.8052 18.8912 27.5447 18.8747H26.5641L26.7548 18.1906H27.0608C27.1865 18.1906 27.2911 18.1341 27.3852 18.0194L28.2172 16.7981H27.1447L27.3435 16.0905H28.5069L28.6918 15.4316H27.5275L27.7262 14.7227ZM9.99139 8.42326H10.8098L10.7161 8.90754L10.8336 8.76934C11.0989 8.48111 11.421 8.3382 11.8014 8.3382C12.1458 8.3382 12.3941 8.43979 12.5501 8.6441C12.7036 8.84842 12.7455 9.1308 12.6728 9.49341L12.2219 11.7779H11.3809L11.7879 9.70726C11.8299 9.49341 11.8182 9.33397 11.7536 9.23111C11.6898 9.12838 11.5675 9.07765 11.3912 9.07765C11.1749 9.07765 10.9928 9.14606 10.8445 9.28197C10.6956 9.41903 10.5973 9.60923 10.549 9.85131L10.1738 11.7779H9.33102L9.99139 8.42326ZM19.3761 8.42326H20.1952L20.1022 8.90754L20.2183 8.76934C20.4838 8.48111 20.8071 8.3382 21.1864 8.3382C21.5307 8.3382 21.7794 8.43979 21.9343 8.6441C22.0869 8.84842 22.1309 9.1308 22.0565 9.49341L21.6073 11.7779H20.7652L21.1725 9.70726C21.2143 9.49341 21.2025 9.33397 21.1386 9.23111C21.0722 9.12838 20.9524 9.07765 20.7768 9.07765C20.5603 9.07765 20.379 9.14606 20.2289 9.28197C20.08 9.41903 19.9811 9.60923 19.9347 9.85131L19.5576 11.7779H18.716L19.3761 8.42326ZM23.4245 6.34424H25.8023C26.2593 6.34424 26.613 6.44938 26.8561 6.65599C27.098 6.86526 27.2191 7.16519 27.2191 7.55615V7.56798C27.2191 7.64235 27.2143 7.72627 27.2073 7.81717C27.1952 7.90948 27.1797 8.0013 27.1608 8.09243C27.056 8.60977 26.813 9.02565 26.4374 9.34096C26.0602 9.65513 25.6137 9.81342 25.0996 9.81342H23.8245L23.4302 11.7778H22.3262L23.4245 6.34424ZM24.0188 8.86863H25.0762C25.3518 8.86863 25.5705 8.80354 25.7302 8.67487C25.8884 8.54493 25.9931 8.34646 26.051 8.07718C26.0602 8.02746 26.0661 7.98258 26.0731 7.94126C26.0766 7.90236 26.0813 7.8632 26.0813 7.82556C26.0813 7.63294 26.0139 7.4936 25.8788 7.40612C25.7439 7.31738 25.5322 7.27504 25.2391 7.27504H24.3411L24.0188 8.86863ZM32.1606 12.4264C31.8116 13.18 31.479 13.6193 31.2837 13.8236C31.0881 14.0257 30.7007 14.4958 29.7677 14.4603L29.8482 13.8853C30.6333 13.6395 31.0578 12.5326 31.2999 12.0425L31.0113 8.43267L31.6186 8.4244H32.1281L32.1829 10.6888L33.1378 8.4244H34.1047L32.1606 12.4264ZM29.4573 8.69725L29.0733 8.96539C28.672 8.64652 28.3056 8.44919 27.5984 8.7823C26.6352 9.23582 25.8302 12.7147 28.4826 11.5689L28.6337 11.7508L29.6772 11.778L30.3625 8.61702L29.4573 8.69725ZM28.8638 10.4254C28.6963 10.9274 28.3219 11.2593 28.0287 11.1648C27.7356 11.0726 27.6308 10.5883 27.8008 10.0851C27.9683 9.5819 28.3452 9.2512 28.6359 9.34567C28.9291 9.43785 29.0349 9.92213 28.8638 10.4254Z" fill="white"/>
</g>
<defs>
<clipPath id="clip0_63_4372">
<rect width="37" height="24" fill="white"/>
</clipPath>
</defs>
</svg>
