<svg xmlns="http://www.w3.org/2000/svg" xmlns:xlink="http://www.w3.org/1999/xlink" version="1.1">
    <!-- для css -->

    <view id="icon--location-view" viewBox="0 0 24 24"/>
    <use xlink:href="#icon--location" width="24" height="24" x="0" y="0"/>
    <view id="angle--bottom-view" viewBox="30 0 24 24"/>
    <use xlink:href="#angle--bottom-transparent" fill="#000000" width="24" height="24" x="30" y="0"/>
    <view id="angle--bottom-red-view" fill="#DA0916"  viewBox="60 0 24 24"/>
    <use xlink:href="#angle--bottom-transparent" fill="#DA0916" width="24" height="24" x="60" y="0"/>

    <!-- HTML -->
    <symbol viewBox="0 0 24 24" id="icon--location">
        <path d="M17.657 16.657L13.414 20.9C13.2285 21.0859 13.0082 21.2333 12.7656 21.3339C12.5231 21.4345 12.2631 21.4863 12.0005 21.4863C11.7379 21.4863 11.4779 21.4345 11.2354 21.3339C10.9928 21.2333 10.7725 21.0859 10.587 20.9L6.343 16.657C5.22422 15.5382 4.46234 14.1127 4.15369 12.5609C3.84504 11.009 4.00349 9.40053 4.60901 7.93874C5.21452 6.47696 6.2399 5.22755 7.55548 4.34852C8.87107 3.46949 10.4178 3.00031 12 3.00031C13.5822 3.00031 15.1289 3.46949 16.4445 4.34852C17.7601 5.22755 18.7855 6.47696 19.391 7.93874C19.9965 9.40053 20.155 11.009 19.8463 12.5609C19.5377 14.1127 18.7758 15.5382 17.657 16.657Z" stroke="currentColor" fill="none" stroke-width="2" stroke-linecap="round" stroke-linejoin="round"/>
        <path d="M14.121 13.121C14.4123 12.8454 14.6454 12.5143 14.8066 12.1471C14.9677 11.7799 15.0536 11.3842 15.0592 10.9832C15.0648 10.5823 14.9899 10.1843 14.839 9.81275C14.6881 9.44122 14.4643 9.10372 14.1808 8.82018C13.8972 8.53664 13.5597 8.31282 13.1882 8.16194C12.8167 8.01107 12.4187 7.93621 12.0178 7.94179C11.6168 7.94736 11.221 8.03326 10.8539 8.19441C10.4867 8.35555 10.1555 8.58867 9.87998 8.87999C9.3335 9.44579 9.03112 10.2036 9.03796 10.9902C9.04479 11.7768 9.3603 12.5292 9.91652 13.0854C10.4727 13.6417 11.2252 13.9572 12.0118 13.964C12.7984 13.9708 13.5562 13.6685 14.122 13.122L14.121 13.121Z" stroke="currentColor"  fill="none" stroke-width="2" stroke-linecap="round" stroke-linejoin="round"/>
    </symbol>

    <symbol viewBox="0 0 24 24" id="icon--clock">
        <path d="M12 8V12L15 15" stroke="currentColor"  stroke-width="2" stroke-linecap="round" stroke-linejoin="round"/>
        <path d="M21 12C21 13.1819 20.7672 14.3522 20.3149 15.4442C19.8626 16.5361 19.1997 17.5282 18.364 18.364C17.5282 19.1997 16.5361 19.8626 15.4442 20.3149C14.3522 20.7672 13.1819 21 12 21C10.8181 21 9.64778 20.7672 8.55585 20.3149C7.46392 19.8626 6.47177 19.1997 5.63604 18.364C4.80031 17.5282 4.13738 16.5361 3.68508 15.4442C3.23279 14.3522 3 13.1819 3 12C3 9.61305 3.94821 7.32387 5.63604 5.63604C7.32387 3.94821 9.61305 3 12 3C14.3869 3 16.6761 3.94821 18.364 5.63604C20.0518 7.32387 21 9.61305 21 12Z" stroke="currentColor"   stroke-width="2" stroke-linecap="round" stroke-linejoin="round"/>
    </symbol>

    <symbol viewBox="0 0 24 24" id="icon--phone">
        <path d="M3.586 3.586C3.2109 3.96099 3.00011 4.46961 3 5V6C3 14.284 9.716 21 18 21H19C19.5304 21 20.0391 20.7893 20.4142 20.4142C20.7893 20.0391 21 19.5304 21 19V15.721C21.0001 15.511 20.934 15.3064 20.8112 15.136C20.6885 14.9657 20.5152 14.8383 20.316 14.772L15.823 13.274C15.5947 13.1981 15.3466 13.2071 15.1244 13.2993C14.9021 13.3915 14.7205 13.5607 14.613 13.776L13.483 16.033C11.0345 14.9267 9.07332 12.9655 7.967 10.517L10.224 9.387C10.4393 9.27945 10.6085 9.0979 10.7007 8.87564C10.7929 8.65339 10.8019 8.40534 10.726 8.177L9.228 3.684C9.1617 3.48496 9.03449 3.3118 8.86436 3.18905C8.69422 3.0663 8.48979 3.00016 8.28 3H5C4.46961 3.00011 3.96099 3.2109 3.586 3.586Z"   stroke="currentColor" stroke-width="2" stroke-linecap="round" stroke-linejoin="round"/>
    </symbol>

    <symbol viewBox="0 0 24 24" id="icon--mail">
        <path d="M19 19H5C4.46957 19 3.96086 18.7893 3.58579 18.4142C3.21071 18.0391 3 17.5304 3 17V7C3 6.46957 3.21071 5.96086 3.58579 5.58579C3.96086 5.21071 4.46957 5 5 5H19C19.5304 5 20.0391 5.21071 20.4142 5.58579C20.7893 5.96086 21 6.46957 21 7V17C21 17.5304 20.7893 18.0391 20.4142 18.4142C20.0391 18.7893 19.5304 19 19 19Z" stroke="currentColor" stroke-width="2" stroke-linecap="round" stroke-linejoin="round"/>
        <path d="M3 8L10.89 13.26C11.2187 13.4793 11.6049 13.5963 12 13.5963C12.3951 13.5963 12.7813 13.4793 13.11 13.26L21 8" stroke="currentColor" stroke-width="2" stroke-linecap="round" stroke-linejoin="round"/>
    </symbol>

    <symbol viewBox="0 0 24 24" id="icon--whatsapp-black">
        <path fill-rule="evenodd" clip-rule="evenodd" d="M18.5857 4.40664C17.6612 3.48166 16.563 2.74864 15.3541 2.24979C14.1452 1.75095 12.8496 1.49612 11.5419 1.49998C6.05333 1.49998 1.58571 5.94569 1.58381 11.4104C1.58142 13.1506 2.04016 14.8604 2.91333 16.3657L1.5 21.5L6.77904 20.1219C8.2403 20.9136 9.87611 21.328 11.5381 21.3276H11.5419C17.0295 21.3276 21.4971 16.8809 21.5 11.4162C21.5032 10.1129 21.2472 8.82206 20.7469 7.61869C20.2466 6.41531 19.5119 5.32345 18.5857 4.40664ZM11.5419 19.6542H11.5381C10.0566 19.6549 8.60209 19.2586 7.32571 18.5066L7.0238 18.3276L3.89047 19.1457L4.72761 16.1057L4.53047 15.7933C3.70201 14.4817 3.26308 12.9618 3.26476 11.4104C3.26476 6.8695 6.97904 3.17427 11.5447 3.17427C13.735 3.17022 15.8372 4.03636 17.3889 5.58217C18.9406 7.12797 19.8147 9.22684 19.819 11.4171C19.8171 15.959 16.1047 19.6552 11.5428 19.6552L11.5419 19.6542ZM16.0819 13.4857C15.8333 13.3619 14.6086 12.7619 14.3819 12.679C14.1552 12.5971 13.9876 12.5552 13.8219 12.8028C13.6562 13.0514 13.179 13.6076 13.0343 13.7743C12.8886 13.9419 12.7438 13.96 12.4952 13.8362C12.2467 13.7123 11.4438 13.4514 10.4933 12.6076C9.75427 11.9504 9.25523 11.14 9.10951 10.8924C8.96475 10.6447 9.09427 10.5095 9.21904 10.3866C9.33046 10.2752 9.46665 10.0971 9.59237 9.95235C9.71618 9.80759 9.75808 9.70473 9.83999 9.53902C9.92284 9.37426 9.88189 9.2295 9.82094 9.10569C9.75808 8.98188 9.25999 7.76283 9.05332 7.26759C8.85047 6.78378 8.6457 6.8495 8.49332 6.84188C8.34856 6.83521 8.18094 6.83236 8.01618 6.83236C7.89013 6.83564 7.7661 6.86491 7.65188 6.91833C7.53766 6.97176 7.4357 7.04818 7.35237 7.14283C7.1238 7.39045 6.4819 7.99045 6.4819 9.2095C6.4819 10.4266 7.37428 11.6057 7.49809 11.7714C7.62094 11.9362 9.25237 14.4371 11.7486 15.5095C12.2114 15.7085 12.6857 15.8828 13.1676 16.0314C13.7628 16.22 14.3057 16.1933 14.7343 16.1295C15.2124 16.0581 16.2066 15.5295 16.4143 14.9514C16.6209 14.3733 16.6209 13.8781 16.559 13.7743C16.4971 13.6714 16.3305 13.6085 16.0819 13.4857Z" fill="currentColor"/>
    </symbol>

    <symbol viewBox="0 0 24 24" id="icon--tg-black">
        <path fill-rule="evenodd" clip-rule="evenodd" d="M19.1355 4.10262C19.3568 4.01176 19.5991 3.98042 19.837 4.01187C20.0749 4.04331 20.2999 4.1364 20.4884 4.28144C20.677 4.42647 20.8222 4.61815 20.9091 4.83653C20.9959 5.05491 21.0212 5.292 20.9822 5.52312L18.951 17.5415C18.754 18.7008 17.45 19.3656 16.3601 18.7881C15.4484 18.305 14.0943 17.5607 12.8763 16.7841C12.2673 16.3953 10.4018 15.1504 10.6311 14.2645C10.8281 13.5071 13.9627 10.6609 15.7538 8.96867C16.4568 8.30385 16.1362 7.92033 15.306 8.53186C13.2444 10.0502 9.93435 12.3592 8.83996 13.0092C7.87452 13.5823 7.37121 13.6801 6.76938 13.5823C5.6714 13.404 4.65313 13.128 3.82204 12.7916C2.69899 12.3373 2.75362 10.8312 3.82114 10.3927L19.1355 4.10262Z" fill="currentColor"/>
    </symbol>

    <symbol viewBox="0 0 24 24" id="icon--search">
        <path d="M10.364 3.00001C9.38979 2.98866 8.42301 3.17074 7.51967 3.53569C6.61634 3.90065 5.7944 4.44124 5.10148 5.12613C4.40856 5.81102 3.85843 6.6266 3.48297 7.52562C3.10751 8.42465 2.91418 9.38924 2.91418 10.3635C2.91418 11.3378 3.10751 12.3024 3.48297 13.2014C3.85843 14.1004 4.40856 14.916 5.10148 15.6009C5.7944 16.2858 6.61634 16.8264 7.51967 17.1913C8.42301 17.5563 9.38979 17.7384 10.364 17.727C12.3021 17.7044 14.1531 16.9187 15.5156 15.5402C16.8781 14.1617 17.6422 12.3017 17.6422 10.3635C17.6422 8.42532 16.8781 6.56528 15.5156 5.18681C14.1531 3.80834 12.3021 3.0226 10.364 3.00001Z" stroke="currentColor" stroke-width="2" stroke-linecap="round"/>
        <path d="M15.8571 15.86L21.0001 21.001" stroke="currentColor" stroke-width="2" stroke-linecap="round"/>
    </symbol>

    <symbol viewBox="0 0 24 24" id="icon--cart">
        <path d="M8.25 20.25C8.44891 20.25 8.63968 20.171 8.78033 20.0303C8.92098 19.8897 9 19.6989 9 19.5C9 19.3011 8.92098 19.1103 8.78033 18.9697C8.63968 18.829 8.44891 18.75 8.25 18.75C8.05109 18.75 7.86032 18.829 7.71967 18.9697C7.57902 19.1103 7.5 19.3011 7.5 19.5C7.5 19.6989 7.57902 19.8897 7.71967 20.0303C7.86032 20.171 8.05109 20.25 8.25 20.25Z" stroke="currentColor" stroke-width="2" stroke-linecap="round" stroke-linejoin="round"/>
        <path d="M18.75 20.25C18.9489 20.25 19.1397 20.171 19.2803 20.0303C19.421 19.8897 19.5 19.6989 19.5 19.5C19.5 19.3011 19.421 19.1103 19.2803 18.9697C19.1397 18.829 18.9489 18.75 18.75 18.75C18.5511 18.75 18.3603 18.829 18.2197 18.9697C18.079 19.1103 18 19.3011 18 19.5C18 19.6989 18.079 19.8897 18.2197 20.0303C18.3603 20.171 18.5511 20.25 18.75 20.25Z" stroke="currentColor" stroke-width="2" stroke-linecap="round" stroke-linejoin="round"/>
        <path d="M2.25 3.75H5.25L7.5 16.5H19.5" stroke="currentColor" stroke-width="2" stroke-linecap="round" stroke-linejoin="round"/>
        <path d="M7.5 13.5H19.192C19.2788 13.5003 19.3631 13.4705 19.4304 13.4156C19.4977 13.3607 19.5439 13.2841 19.561 13.199L20.911 6.449C20.9218 6.3944 20.9204 6.33807 20.9068 6.2841C20.8931 6.23012 20.8677 6.17984 20.8323 6.13688C20.7969 6.09393 20.7524 6.05936 20.7021 6.03569C20.6517 6.01202 20.5967 5.99983 20.541 6H6" stroke="currentColor" stroke-width="2" stroke-linecap="round" stroke-linejoin="round"/>
    </symbol>

    <symbol viewBox="0 0 24 24" id="icon--dots">
        <path d="M7.20002 12C7.20002 12.3152 7.13795 12.6273 7.01733 12.9184C6.89672 13.2096 6.71994 13.4742 6.49708 13.6971C6.27422 13.9199 6.00965 14.0967 5.71846 14.2173C5.42728 14.3379 5.1152 14.4 4.80002 14.4C4.48485 14.4 4.17277 14.3379 3.88158 14.2173C3.5904 14.0967 3.32583 13.9199 3.10297 13.6971C2.88011 13.4742 2.70332 13.2096 2.58271 12.9184C2.4621 12.6273 2.40002 12.3152 2.40002 12C2.40002 11.3635 2.65288 10.753 3.10297 10.3029C3.55306 9.85286 4.1635 9.60001 4.80002 9.60001C5.43654 9.60001 6.04699 9.85286 6.49708 10.3029C6.94717 10.753 7.20002 11.3635 7.20002 12ZM14.4 12C14.4 12.3152 14.3379 12.6273 14.2173 12.9184C14.0967 13.2096 13.9199 13.4742 13.6971 13.6971C13.4742 13.9199 13.2096 14.0967 12.9185 14.2173C12.6273 14.3379 12.3152 14.4 12 14.4C11.6849 14.4 11.3728 14.3379 11.0816 14.2173C10.7904 14.0967 10.5258 13.9199 10.303 13.6971C10.0801 13.4742 9.90332 13.2096 9.78271 12.9184C9.6621 12.6273 9.60002 12.3152 9.60002 12C9.60002 11.3635 9.85288 10.753 10.303 10.3029C10.7531 9.85286 11.3635 9.60001 12 9.60001C12.6365 9.60001 13.247 9.85286 13.6971 10.3029C14.1472 10.753 14.4 11.3635 14.4 12ZM19.2 14.4C19.5152 14.4 19.8273 14.3379 20.1185 14.2173C20.4096 14.0967 20.6742 13.9199 20.8971 13.6971C21.1199 13.4742 21.2967 13.2096 21.4173 12.9184C21.5379 12.6273 21.6 12.3152 21.6 12C21.6 11.6848 21.5379 11.3727 21.4173 11.0816C21.2967 10.7904 21.1199 10.5258 20.8971 10.3029C20.6742 10.0801 20.4096 9.90331 20.1185 9.78269C19.8273 9.66208 19.5152 9.60001 19.2 9.60001C18.5635 9.60001 17.9531 9.85286 17.503 10.3029C17.0529 10.753 16.8 11.3635 16.8 12C16.8 12.6365 17.0529 13.247 17.503 13.6971C17.9531 14.1471 18.5635 14.4 19.2 14.4Z" fill="currentColor"/>
    </symbol>

    <symbol viewBox="0 0 24 24" id="icon--vk-black">
        <path fill-rule="evenodd" clip-rule="evenodd" d="M23.405 16.865C22.8609 15.7695 22.1441 14.7687 21.282 13.901C20.9932 13.5755 20.6913 13.2619 20.377 12.961L20.339 12.924C20.2222 12.8108 20.1069 12.6961 19.993 12.58C21.1718 10.9408 22.1803 9.18576 23.003 7.34199L23.036 7.26799L23.059 7.18999C23.168 6.82699 23.292 6.13699 22.852 5.51299C22.396 4.86899 21.667 4.75299 21.178 4.75299H18.931C18.4604 4.73124 17.9951 4.85905 17.6017 5.1181C17.2082 5.37715 16.9069 5.75414 16.741 6.19499C16.2575 7.34665 15.652 8.44323 14.935 9.46599V6.83299C14.935 6.49299 14.903 5.92299 14.538 5.44299C14.102 4.86699 13.471 4.75299 13.033 4.75299H9.467C9.00167 4.74228 8.55005 4.91095 8.20567 5.22406C7.86128 5.53718 7.65051 5.97075 7.617 6.43499L7.614 6.47999V6.52499C7.614 7.00999 7.806 7.36799 7.96 7.59299C8.029 7.69399 8.102 7.78599 8.149 7.84399L8.159 7.85699C8.209 7.91899 8.242 7.95999 8.275 8.00599C8.363 8.12399 8.488 8.30799 8.524 8.78199V10.255C7.80827 9.05626 7.22134 7.78519 6.773 6.46299L6.765 6.44099L6.757 6.41999C6.635 6.10099 6.44 5.63699 6.049 5.28299C5.593 4.86799 5.053 4.75299 4.562 4.75299H2.282C1.785 4.75299 1.186 4.86899 0.739 5.33999C0.3 5.80399 0.25 6.35999 0.25 6.65399V6.78799L0.278 6.91799C0.908264 9.84912 2.20931 12.5943 4.079 14.938C4.93332 16.2854 6.09321 17.4124 7.46459 18.2276C8.83596 19.0428 10.3802 19.5233 11.972 19.63L12.013 19.633H12.055C12.781 19.633 13.538 19.57 14.107 19.191C14.874 18.679 14.935 17.894 14.935 17.502V16.364C15.132 16.524 15.376 16.738 15.675 17.026C16.037 17.388 16.325 17.702 16.572 17.976L16.704 18.122C16.896 18.336 17.085 18.547 17.257 18.72C17.473 18.937 17.74 19.176 18.074 19.353C18.437 19.544 18.818 19.631 19.222 19.631H21.503C21.984 19.631 22.673 19.517 23.158 18.955C23.686 18.343 23.646 17.592 23.48 17.053L23.45 16.956L23.405 16.865ZM17.685 16.971C17.3751 16.6245 17.056 16.2864 16.728 15.957L16.725 15.954C15.368 14.646 14.735 14.419 14.287 14.419C14.048 14.419 13.785 14.445 13.614 14.659C13.5379 14.7616 13.4875 14.8809 13.467 15.007C13.4432 15.1537 13.4324 15.3023 13.435 15.451V17.502C13.435 17.757 13.393 17.864 13.275 17.942C13.118 18.047 12.783 18.132 12.064 18.132C10.6982 18.0391 9.37398 17.6233 8.20018 16.9189C7.02637 16.2145 6.03652 15.2415 5.312 14.08L5.304 14.067L5.294 14.055C3.55218 11.8887 2.3388 9.34659 1.75 6.62999C1.754 6.49999 1.782 6.42099 1.828 6.37299C1.875 6.32299 1.99 6.25299 2.282 6.25299H4.562C4.815 6.25299 4.947 6.30899 5.042 6.39399C5.148 6.49199 5.242 6.65699 5.354 6.95099C5.914 8.59699 6.67 10.137 7.387 11.269C7.745 11.834 8.097 12.305 8.415 12.638C8.574 12.804 8.729 12.942 8.878 13.04C9.021 13.134 9.184 13.209 9.352 13.209C9.44 13.209 9.543 13.199 9.642 13.156C9.74905 13.109 9.83712 13.0272 9.892 12.924C9.995 12.736 10.024 12.459 10.024 12.096V8.72299C9.971 7.90499 9.724 7.44399 9.484 7.11699C9.43532 7.05164 9.38531 6.9873 9.334 6.92399L9.321 6.90799C9.27856 6.85604 9.23787 6.80267 9.199 6.74799C9.1503 6.68653 9.12075 6.61211 9.114 6.53399C9.12185 6.45453 9.15976 6.38107 9.21999 6.32864C9.28022 6.27622 9.35821 6.2488 9.438 6.25199H13.033C13.239 6.25199 13.308 6.30199 13.343 6.34899C13.393 6.41399 13.435 6.54899 13.435 6.83299V11.361C13.435 11.899 13.683 12.263 14.043 12.263C14.457 12.263 14.756 12.012 15.278 11.49L15.287 11.48L15.295 11.471C16.4661 10.0434 17.4228 8.45263 18.135 6.74899L18.139 6.73699C18.1922 6.58629 18.2935 6.45722 18.4272 6.36961C18.5608 6.28199 18.7196 6.24067 18.879 6.25199H21.179C21.491 6.25199 21.593 6.33199 21.627 6.37899C21.662 6.42899 21.687 6.53599 21.627 6.74599C20.8057 8.5824 19.7903 10.3257 18.598 11.946L18.59 11.958C18.475 12.135 18.348 12.331 18.33 12.555C18.31 12.797 18.414 13.016 18.597 13.252C18.73 13.448 19.005 13.717 19.284 13.99L19.31 14.016C19.602 14.302 19.919 14.612 20.173 14.912L20.18 14.919L20.187 14.927C20.9443 15.6826 21.5741 16.5559 22.052 17.513C22.128 17.773 22.082 17.907 22.022 17.976C21.953 18.056 21.798 18.131 21.504 18.131H19.222C19.0664 18.1352 18.9124 18.099 18.775 18.026C18.6067 17.9274 18.4538 17.8048 18.321 17.662C18.178 17.519 18.023 17.346 17.833 17.135L17.685 16.971Z" fill="currentColor"/>
    </symbol>

    <symbol viewBox="0 0 24 24" id="icon--youtube-black">
        <path d="M14 12L10.5 14V10L14 12Z" fill="transparent" stroke="currentColor" stroke-width="2" stroke-linecap="round" stroke-linejoin="round"/>
        <path d="M2 12.708V11.292C2 8.39699 2 6.94899 2.905 6.01799C3.811 5.08599 5.237 5.04599 8.088 4.96499C9.438 4.92699 10.818 4.89999 12 4.89999C13.182 4.89999 14.561 4.92699 15.912 4.96499C18.763 5.04599 20.189 5.08599 21.094 6.01799C21.999 6.94999 22 8.39799 22 11.292V12.707C22 15.603 22 17.05 21.095 17.982C20.189 18.913 18.764 18.954 15.912 19.034C14.562 19.073 13.182 19.1 12 19.1C10.818 19.1 9.439 19.073 8.088 19.034C5.237 18.954 3.811 18.914 2.905 17.982C1.999 17.05 2 15.602 2 12.708Z"  stroke="currentColor" stroke-width="2"/>
    </symbol>

    <symbol viewBox="0 0 24 24" id="icon--catalog">
        <path fill-rule="evenodd" clip-rule="evenodd" d="M3.59998 4.80001C3.59998 4.48175 3.7264 4.17652 3.95145 3.95148C4.17649 3.72643 4.48172 3.60001 4.79998 3.60001H19.2C19.5182 3.60001 19.8235 3.72643 20.0485 3.95148C20.2735 4.17652 20.4 4.48175 20.4 4.80001C20.4 5.11827 20.2735 5.42349 20.0485 5.64853C19.8235 5.87358 19.5182 6.00001 19.2 6.00001H4.79998C4.48172 6.00001 4.17649 5.87358 3.95145 5.64853C3.7264 5.42349 3.59998 5.11827 3.59998 4.80001ZM3.59998 9.60001C3.59998 9.28175 3.7264 8.97652 3.95145 8.75148C4.17649 8.52643 4.48172 8.40001 4.79998 8.40001H19.2C19.5182 8.40001 19.8235 8.52643 20.0485 8.75148C20.2735 8.97652 20.4 9.28175 20.4 9.60001C20.4 9.91827 20.2735 10.2235 20.0485 10.4485C19.8235 10.6736 19.5182 10.8 19.2 10.8H4.79998C4.48172 10.8 4.17649 10.6736 3.95145 10.4485C3.7264 10.2235 3.59998 9.91827 3.59998 9.60001ZM3.59998 14.4C3.59998 14.0817 3.7264 13.7765 3.95145 13.5515C4.17649 13.3264 4.48172 13.2 4.79998 13.2H19.2C19.5182 13.2 19.8235 13.3264 20.0485 13.5515C20.2735 13.7765 20.4 14.0817 20.4 14.4C20.4 14.7183 20.2735 15.0235 20.0485 15.2485C19.8235 15.4736 19.5182 15.6 19.2 15.6H4.79998C4.48172 15.6 4.17649 15.4736 3.95145 15.2485C3.7264 15.0235 3.59998 14.7183 3.59998 14.4ZM3.59998 19.2C3.59998 18.8817 3.7264 18.5765 3.95145 18.3515C4.17649 18.1264 4.48172 18 4.79998 18H19.2C19.5182 18 19.8235 18.1264 20.0485 18.3515C20.2735 18.5765 20.4 18.8817 20.4 19.2C20.4 19.5183 20.2735 19.8235 20.0485 20.0485C19.8235 20.2736 19.5182 20.4 19.2 20.4H4.79998C4.48172 20.4 4.17649 20.2736 3.95145 20.0485C3.7264 19.8235 3.59998 19.5183 3.59998 19.2Z" fill="currentColor"/>
    </symbol>

    <symbol viewBox="0 0 24 24" id="angle--right">
        <path fill-rule="evenodd" clip-rule="evenodd" d="M8.75194 17.648C8.52722 17.423 8.401 17.118 8.401 16.8C8.401 16.482 8.52722 16.177 8.75194 15.952L12.7029 12L8.75194 8.04801C8.53998 7.82053 8.42458 7.51965 8.43007 7.20877C8.43555 6.89789 8.56149 6.60127 8.78135 6.38141C9.00121 6.16155 9.29783 6.03561 9.60871 6.03012C9.91959 6.02464 10.2205 6.14004 10.4479 6.35201L15.2479 11.152C15.4727 11.377 15.5989 11.682 15.5989 12C15.5989 12.318 15.4727 12.623 15.2479 12.848L10.4479 17.648C10.2229 17.8727 9.91795 17.9989 9.59995 17.9989C9.28194 17.9989 8.97695 17.8727 8.75194 17.648Z" fill="currentColor"/>
    </symbol>

    <symbol viewBox="0 0 24 24" id="angle--left">
        <path fill-rule="evenodd" clip-rule="evenodd" d="M15.2481 17.648C15.4728 17.423 15.599 17.118 15.599 16.8C15.599 16.482 15.4728 16.177 15.2481 15.952L11.2971 12L15.2481 8.04801C15.46 7.82053 15.5754 7.51965 15.5699 7.20877C15.5644 6.89789 15.4385 6.60127 15.2186 6.38141C14.9988 6.16155 14.7022 6.03561 14.3913 6.03012C14.0804 6.02464 13.7795 6.14004 13.5521 6.35201L8.75206 11.152C8.52733 11.377 8.40111 11.682 8.40111 12C8.40111 12.318 8.52733 12.623 8.75206 12.848L13.5521 17.648C13.7771 17.8727 14.0821 17.9989 14.4001 17.9989C14.7181 17.9989 15.0231 17.8727 15.2481 17.648Z" fill="currentColor"/>
    </symbol>

    <symbol viewBox="0 0 24 24" id="angle--bottom">
        <path fill-rule="evenodd" clip-rule="evenodd" d="M6.38193 8.35094C6.60693 8.12622 6.91193 8 7.22993 8C7.54793 8 7.85293 8.12622 8.07793 8.35094L12.0299 12.3019L15.9819 8.35094C16.2094 8.13898 16.5103 8.02358 16.8212 8.02906C17.1321 8.03455 17.4287 8.16049 17.6485 8.38035C17.8684 8.60021 17.9943 8.89683 17.9998 9.20771C18.0053 9.51859 17.8899 9.81946 17.6779 10.0469L12.8779 14.8469C12.6529 15.0717 12.3479 15.1979 12.0299 15.1979C11.7119 15.1979 11.4069 15.0717 11.1819 14.8469L6.38193 10.0469C6.15721 9.82194 6.03099 9.51694 6.03099 9.19894C6.03099 8.88094 6.15721 8.57594 6.38193 8.35094Z" fill="currentColor"/>
    </symbol>

    <symbol viewBox="0 0 24 24" id="angle--bottom-transparent">
        <path fill-rule="evenodd" clip-rule="evenodd" d="M6.38193 8.35094C6.60693 8.12622 6.91193 8 7.22993 8C7.54793 8 7.85293 8.12622 8.07793 8.35094L12.0299 12.3019L15.9819 8.35094C16.2094 8.13898 16.5103 8.02358 16.8212 8.02906C17.1321 8.03455 17.4287 8.16049 17.6485 8.38035C17.8684 8.60021 17.9943 8.89683 17.9998 9.20771C18.0053 9.51859 17.8899 9.81946 17.6779 10.0469L12.8779 14.8469C12.6529 15.0717 12.3479 15.1979 12.0299 15.1979C11.7119 15.1979 11.4069 15.0717 11.1819 14.8469L6.38193 10.0469C6.15721 9.82194 6.03099 9.51694 6.03099 9.19894C6.03099 8.88094 6.15721 8.57594 6.38193 8.35094Z"/>
    </symbol>

    <symbol viewBox="0 0 24 24" id="angle--top">
        <path fill-rule="evenodd" clip-rule="evenodd" d="M6.38193 14.6491C6.60693 14.8738 6.91193 15 7.22993 15C7.54793 15 7.85293 14.8738 8.07793 14.6491L12.0299 10.6981L15.9819 14.6491C16.2094 14.861 16.5103 14.9764 16.8212 14.9709C17.1321 14.9655 17.4287 14.8395 17.6485 14.6197C17.8684 14.3998 17.9943 14.1032 17.9998 13.7923C18.0053 13.4814 17.8899 13.1805 17.6779 12.9531L12.8779 8.15306C12.6529 7.92834 12.3479 7.80211 12.0299 7.80211C11.7119 7.80211 11.4069 7.92834 11.1819 8.15306L6.38193 12.9531C6.15721 13.1781 6.03099 13.4831 6.03099 13.8011C6.03099 14.1191 6.15721 14.4241 6.38193 14.6491Z" fill="currentColor"/>
    </symbol>

    <symbol viewBox="0 0 46 46" id="icon--warehouse">
        <path d="M11.5002 34.5H34.5002M11.5002 26.8334H34.5002M42.1668 16.0042V38.3334C42.1668 39.35 41.763 40.325 41.0441 41.0439C40.3252 41.7628 39.3502 42.1667 38.3335 42.1667H7.66683C6.65017 42.1667 5.67514 41.7628 4.95625 41.0439C4.23736 40.325 3.8335 39.35 3.8335 38.3334V16.0042C3.83658 15.2397 4.06817 14.4936 4.49851 13.8618C4.92884 13.2299 5.53827 12.7412 6.2485 12.4584L21.5818 6.32502C22.4926 5.9623 23.5077 5.9623 24.4185 6.32502L39.7518 12.4584C40.4621 12.7412 41.0715 13.2299 41.5018 13.8618C41.9322 14.4936 42.1637 15.2397 42.1668 16.0042Z" stroke="currentColor" stroke-width="3" stroke-linecap="round" stroke-linejoin="round"/>
        <path d="M11.5 19.1667H34.5V42.1668H11.5V19.1667Z" stroke="currentColor" stroke-width="3" stroke-linecap="round" stroke-linejoin="round"/>
    </symbol>

    <symbol viewBox="0 0 46 46" id="icon--delivery">
        <path d="M5.75 24.4375C5.75 23.6436 6.39359 23 7.1875 23H21.5625C22.3564 23 23 23.6436 23 24.4375C23 25.2314 22.3564 25.875 21.5625 25.875H7.1875C6.39359 25.875 5.75 25.2314 5.75 24.4375ZM2.875 17.25C2.875 16.4561 3.51859 15.8125 4.3125 15.8125H15.8125C16.6064 15.8125 17.25 16.4561 17.25 17.25C17.25 18.0439 16.6064 18.6875 15.8125 18.6875H4.3125C3.51859 18.6875 2.875 18.0439 2.875 17.25Z" fill="currentColor"/>
        <path d="M43.0086 23.8711L38.6961 13.8086C38.5854 13.55 38.4012 13.3296 38.1664 13.1747C37.9315 13.0198 37.6564 12.9373 37.3751 12.9375H33.0626V10.0625C33.0626 9.68125 32.9111 9.31562 32.6415 9.04603C32.3719 8.77645 32.0063 8.625 31.6251 8.625C31.6251 8.625 10.0676 8.625 8.62505 8.625C7.18255 8.625 7.28992 11.5 8.62505 11.5C9.96019 11.5 30.1876 11.5 30.1876 11.5V29.5492C29.5325 29.9296 28.9593 30.4359 28.5009 31.0389C28.0425 31.6418 27.708 32.3296 27.5167 33.0625H18.4834C18.1336 31.7074 17.3015 30.5265 16.1432 29.741C14.9849 28.9555 13.5798 28.6195 12.1915 28.7958C10.8031 28.9722 9.52675 29.6488 8.60159 30.6989C7.67643 31.749 7.16602 33.1005 7.16602 34.5C7.16602 35.8995 7.67643 37.251 8.60159 38.3011C9.52675 39.3512 10.8031 40.0278 12.1915 40.2042C13.5798 40.3805 14.9849 40.0445 16.1432 39.259C17.3015 38.4735 18.1336 37.2926 18.4834 35.9375H27.5167C27.8294 37.1712 28.5445 38.2654 29.549 39.0471C30.5534 39.8287 31.7898 40.2531 33.0626 40.2531C34.3353 40.2531 35.5717 39.8287 36.5761 39.0471C37.5806 38.2654 38.2957 37.1712 38.6084 35.9375H41.6876C42.0688 35.9375 42.4344 35.7861 42.704 35.5165C42.9736 35.2469 43.1251 34.8812 43.1251 34.5V24.4375C43.1251 24.2428 43.0855 24.05 43.0086 23.8711ZM12.9376 37.375C12.3689 37.375 11.8131 37.2064 11.3403 36.8905C10.8675 36.5746 10.499 36.1256 10.2814 35.6002C10.0638 35.0749 10.0069 34.4968 10.1178 33.9391C10.2287 33.3814 10.5025 32.8691 10.9046 32.4671C11.3067 32.065 11.819 31.7912 12.3767 31.6802C12.9344 31.5693 13.5124 31.6262 14.0378 31.8438C14.5631 32.0614 15.0121 32.4299 15.328 32.9027C15.6439 33.3755 15.8126 33.9314 15.8126 34.5C15.8118 35.2623 15.5086 35.9931 14.9696 36.5321C14.4306 37.0711 13.6998 37.3742 12.9376 37.375ZM33.0626 15.8125H36.4263L39.5083 23H33.0626V15.8125ZM33.0626 37.375C32.4939 37.375 31.9381 37.2064 31.4653 36.8905C30.9925 36.5746 30.624 36.1256 30.4064 35.6002C30.1888 35.0749 30.1319 34.4968 30.2428 33.9391C30.3537 33.3814 30.6275 32.8691 31.0296 32.4671C31.4317 32.065 31.944 31.7912 32.5017 31.6802C33.0594 31.5693 33.6374 31.6262 34.1628 31.8438C34.6881 32.0614 35.1371 32.4299 35.453 32.9027C35.7689 33.3755 35.9376 33.9314 35.9376 34.5C35.9368 35.2623 35.6336 35.9931 35.0946 36.5321C34.5556 37.0711 33.8248 37.3742 33.0626 37.375ZM40.2501 33.0625H38.6084C38.2918 31.8312 37.5755 30.7398 36.5718 29.9593C35.5682 29.1789 34.3339 28.7535 33.0626 28.75V25.875H40.2501V33.0625Z" fill="currentColor"/>
    </symbol>

    <symbol viewBox="0 0 46 46" id="icon--quality">
        <path d="M17.2496 23.1075L21.083 26.9408L28.7496 19.2742" stroke="currentColor" stroke-width="3" stroke-linecap="round" stroke-linejoin="round"/>
        <path d="M39.5178 11.5767C33.4575 11.8985 27.5171 9.80301 23 5.75C18.4829 9.80301 12.5425 11.8985 6.48217 11.5767C5.99445 13.4648 5.74842 15.4072 5.75001 17.3573C5.75001 28.0734 13.0793 37.0798 23 39.6328C32.9207 37.0798 40.25 28.0753 40.25 17.3573C40.25 15.3602 39.9951 13.4243 39.5178 11.5767Z" stroke="currentColor" stroke-width="3" stroke-linecap="round" stroke-linejoin="round"/>
    </symbol>

    <symbol viewBox="0 0 46 46" id="icon--users">
        <path d="M32.5836 38.3334H42.1669V34.5C42.1668 33.3051 41.7944 32.1398 41.1015 31.1662C40.4086 30.1927 39.4296 29.4592 38.3005 29.0677C37.1715 28.6763 35.9485 28.6463 34.8017 28.982C33.6548 29.3177 32.641 30.0023 31.9012 30.9408" stroke="currentColor" stroke-width="3" stroke-linecap="round" stroke-linejoin="round"/>
        <path d="M13.4167 38.3333H32.5834V34.4999C32.5868 32.9332 32.2046 31.3897 31.4706 30.0056C30.7366 28.6214 29.6733 27.4392 28.3744 26.563C26.933 25.5883 25.2535 25.0242 23.5159 24.9313C21.7783 24.8384 20.0482 25.2201 18.511 26.0356C16.9739 26.851 15.6876 28.0695 14.7902 29.5602C13.8928 31.051 13.418 32.758 13.4167 34.498V38.3333Z" stroke="currentColor" stroke-width="3" stroke-linecap="round" stroke-linejoin="round"/>
        <path d="M14.0993 30.9408C13.3595 30.0023 12.3457 29.3177 11.1989 28.982C10.052 28.6463 8.82906 28.6763 7.70001 29.0677C6.57097 29.4592 5.59194 30.1927 4.89902 31.1662C4.20609 32.1398 3.83371 33.3051 3.83362 34.5V38.3334H13.417" stroke="currentColor" stroke-width="3" stroke-linecap="round" stroke-linejoin="round"/>
        <path d="M39.127 21.8769C39.4931 21.5232 39.7852 21.1003 39.9861 20.6326C40.187 20.1649 40.2927 19.6619 40.2971 19.1529C40.3016 18.6439 40.2046 18.1391 40.0118 17.668C39.8191 17.1969 39.5344 16.7689 39.1745 16.409C38.8146 16.0491 38.3866 15.7645 37.9155 15.5717C37.4444 15.379 36.9396 15.282 36.4306 15.2864C35.9217 15.2908 35.4186 15.3966 34.951 15.5975C34.4833 15.7984 34.0603 16.0904 33.7067 16.4565C33.0084 17.1795 32.622 18.1478 32.6308 19.1529C32.6395 20.158 33.0426 21.1194 33.7534 21.8302C34.4641 22.5409 35.4256 22.944 36.4306 22.9528C37.4357 22.9615 38.404 22.5751 39.127 21.8769Z" stroke="currentColor" stroke-width="3" stroke-linecap="round" stroke-linejoin="round"/>
        <path d="M28.7498 13.4166C28.7498 14.9416 28.144 16.4042 27.0656 17.4825C25.9873 18.5608 24.5248 19.1666 22.9998 19.1666C21.4748 19.1666 20.0122 18.5608 18.9339 17.4825C17.8556 16.4042 17.2498 14.9416 17.2498 13.4166C17.2498 11.8916 17.8556 10.4291 18.9339 9.35076C20.0122 8.27243 21.4748 7.66663 22.9998 7.66663C24.5248 7.66663 25.9873 8.27243 27.0656 9.35076C28.144 10.4291 28.7498 11.8916 28.7498 13.4166Z" stroke="currentColor" stroke-width="3" stroke-linecap="round" stroke-linejoin="round"/>
        <path d="M12.2935 21.8769C12.6596 21.5232 12.9517 21.1003 13.1526 20.6326C13.3535 20.1649 13.4592 19.6619 13.4636 19.1529C13.4681 18.6439 13.3711 18.1391 13.1783 17.668C12.9856 17.1969 12.701 16.7689 12.341 16.409C11.9811 16.0491 11.5531 15.7645 11.082 15.5717C10.6109 15.379 10.1061 15.282 9.59714 15.2864C9.08816 15.2908 8.58515 15.3966 8.11746 15.5975C7.64978 15.7984 7.22679 16.0904 6.87318 16.4565C6.17491 17.1795 5.78853 18.1478 5.79726 19.1529C5.806 20.158 6.20915 21.1194 6.91988 21.8302C7.63061 22.5409 8.59205 22.944 9.59714 22.9528C10.6022 22.9615 11.5705 22.5751 12.2935 21.8769Z" stroke="currentColor" stroke-width="3" stroke-linecap="round" stroke-linejoin="round"/>
    </symbol>

    <symbol viewBox="0 0 46 46" id="icon--check">
        <path d="M17.25 23L21.0833 26.8333L28.75 19.1667" stroke="currentColor" stroke-width="3" stroke-linecap="round" stroke-linejoin="round"/>
        <path d="M15.0171 9.0026C16.3915 8.89193 17.696 8.35068 18.745 7.45585C19.9313 6.44436 21.4392 5.88876 22.9981 5.88876C24.5571 5.88876 26.065 6.44436 27.2512 7.45585C28.301 8.35036 29.6062 8.89095 30.981 9.00068C32.535 9.12431 33.994 9.79768 35.0963 10.8999C36.1985 12.0022 36.8719 13.4612 36.9955 15.0152C37.1053 16.39 37.6459 17.6952 38.5404 18.745C39.5519 19.9313 40.1075 21.4392 40.1075 22.9981C40.1075 24.557 39.5519 26.0649 38.5404 27.2512C37.6459 28.301 37.1053 29.6062 36.9955 30.981C36.8719 32.5349 36.1985 33.994 35.0963 35.0962C33.994 36.1985 32.535 36.8719 30.981 36.9955C29.6062 37.1052 28.301 37.6458 27.2512 38.5403C26.065 39.5518 24.5571 40.1074 22.9981 40.1074C21.4392 40.1074 19.9313 39.5518 18.745 38.5403C17.6952 37.6458 16.39 37.1052 15.0152 36.9955C13.4613 36.8719 12.0023 36.1985 10.9 35.0962C9.79771 33.994 9.12434 32.5349 9.00071 30.981C8.89098 29.6062 8.35039 28.301 7.45588 27.2512C6.44439 26.0649 5.88879 24.557 5.88879 22.9981C5.88879 21.4392 6.44439 19.9313 7.45588 18.745C8.35039 17.6952 8.89098 16.39 9.00071 15.0152C9.12434 13.4612 9.79771 12.0022 10.9 10.8999C12.0023 9.79768 13.4613 9.12431 15.0152 9.00068L15.0171 9.0026Z" stroke="currentColor" stroke-width="3" stroke-linecap="round" stroke-linejoin="round"/>
    </symbol>

    <symbol viewBox="0 0 46 46" id="icon--build">
        <path d="M33.1111 36V12.8889C33.1111 12.1227 32.8067 11.3879 32.265 10.8461C31.7232 10.3044 30.9884 10 30.2222 10H15.7778C15.0116 10 14.2768 10.3044 13.735 10.8461C13.1933 11.3879 12.8889 12.1227 12.8889 12.8889V36M33.1111 36H12.8889M33.1111 36H36M33.1111 36H25.8889M12.8889 36H10M12.8889 36H20.1111M25.8889 36V28.7778C25.8889 28.3947 25.7367 28.0273 25.4658 27.7564C25.1949 27.4855 24.8275 27.3333 24.4444 27.3333H21.5556C21.1725 27.3333 20.8051 27.4855 20.5342 27.7564C20.2633 28.0273 20.1111 28.3947 20.1111 28.7778V36M25.8889 36H20.1111M18.6667 15.7778H20.1111M18.6667 21.5556H20.1111M25.8889 15.7778H27.3333M25.8889 21.5556H27.3333" stroke="currentColor" stroke-width="3" stroke-linecap="round" stroke-linejoin="round"/>
    </symbol>

    <symbol viewBox="0 0 46 46 " id="icon--play">
        <path d="M22.147 17.319L28.2746 21.4053C28.5367 21.5809 28.7515 21.8183 28.9001 22.0966C29.0486 22.3749 29.1263 22.6855 29.1263 23.001C29.1263 23.3164 29.0486 23.627 28.9001 23.9053C28.7515 24.1836 28.5367 24.421 28.2746 24.5966L22.147 28.6829C21.8584 28.8755 21.5229 28.9861 21.1763 29.0029C20.8297 29.0198 20.485 28.9422 20.1791 28.7785C19.8731 28.6148 19.6173 28.3711 19.439 28.0734C19.2607 27.7757 19.1666 27.4352 19.1666 27.0882V18.9175C19.1659 18.5702 19.2595 18.2292 19.4376 17.9309C19.6156 17.6327 19.8713 17.3885 20.1774 17.2243C20.4835 17.0601 20.8284 16.9822 21.1753 16.9989C21.5223 17.0156 21.8581 17.1262 22.147 17.319Z" stroke="white" stroke-width="2" stroke-linecap="round" stroke-linejoin="round"/>
        <path d="M38.9371 29.601C40.6878 25.3742 40.6877 20.6251 38.9369 16.3984C37.186 12.1717 33.8278 8.81362 29.601 7.06292C25.3743 5.31223 20.6251 5.31232 16.3984 7.06318C12.1717 8.81403 8.81365 12.1722 7.06296 16.399C5.31226 20.6258 5.31235 25.3749 7.06321 29.6016C8.81406 33.8283 12.1723 37.1864 16.399 38.9371C20.6258 40.6878 25.3749 40.6877 29.6016 38.9368C33.8284 37.186 37.1864 33.8278 38.9371 29.601Z" stroke="white" stroke-width="2" stroke-linecap="round" stroke-linejoin="round"/>
    </symbol>

    <symbol viewBox="0 0 46 46" id="icon--start-border">
        <path d="M24.8228 5.61009C24.2497 3.84484 21.7523 3.84484 21.1773 5.61009L18.2659 14.5686C18.1405 14.9532 17.8966 15.2882 17.5692 15.5258C17.2418 15.7633 16.8477 15.8912 16.4431 15.8911H7.02464C5.16931 15.8911 4.39498 18.2678 5.89764 19.3603L13.5183 24.8956C13.8457 25.1336 14.0893 25.4691 14.2143 25.854C14.3392 26.2389 14.3392 26.6535 14.2141 27.0384L11.3046 35.9969C10.7296 37.7622 12.7516 39.2323 14.2524 38.1398L21.8731 32.6044C22.2006 32.3663 22.5951 32.2381 23.0001 32.2381C23.405 32.2381 23.7995 32.3663 24.1271 32.6044L31.7477 38.1398C33.2485 39.2323 35.2706 37.7641 34.6956 35.9969L31.7861 27.0384C31.6609 26.6535 31.6609 26.2389 31.7859 25.854C31.9108 25.4691 32.1545 25.1336 32.4818 24.8956L40.1025 19.3603C41.6032 18.2678 40.8327 15.8911 38.9755 15.8911H29.5551C29.1509 15.8908 28.7571 15.7627 28.4301 15.5252C28.1031 15.2877 27.8595 14.9529 27.7342 14.5686L24.8228 5.61009Z" stroke="#FFC107" stroke-width="3" stroke-linecap="round" stroke-linejoin="round"/>
    </symbol>

    <symbol viewBox="0 0 46 46" id="icon--start-fill">
        <path d="M20.8131 6.73134C21.5031 4.61342 24.4988 4.61342 25.1869 6.73134L27.6479 14.3022C27.7979 14.7636 28.0901 15.1659 28.4825 15.4513C28.875 15.7366 29.3476 15.8906 29.8329 15.8911H37.7966C40.0238 15.8911 40.9496 18.7431 39.1479 20.0541L32.7079 24.7308C32.3144 25.016 32.0215 25.4186 31.871 25.8807C31.7205 26.3428 31.7203 26.8407 31.8703 27.3029L34.3313 34.8738C35.0213 36.9936 32.5948 38.7569 30.7893 37.4459L24.3493 32.7693C23.9565 32.4841 23.4835 32.3305 22.9981 32.3305C22.5126 32.3305 22.0396 32.4841 21.6468 32.7693L15.2068 37.4459C13.4051 38.7569 10.9806 36.9936 11.6686 34.8757L14.1296 27.3048C14.2797 26.8426 14.2794 26.3447 14.129 25.8826C13.9785 25.4205 13.6855 25.0179 13.2921 24.7327L6.85397 20.056C5.05231 18.745 5.97997 15.893 8.20714 15.893H16.1671C16.6524 15.893 17.1253 15.7396 17.5181 15.4545C17.9109 15.1694 18.2035 14.7674 18.354 14.306L20.815 6.73517L20.8131 6.73134Z" fill="#FFC107"/>
    </symbol>

    <symbol viewBox="0 0 32 32" id="icon--file">
        <path d="M18.6666 4V9.33333C18.6666 9.68695 18.8071 10.0261 19.0572 10.2761C19.3072 10.5262 19.6463 10.6667 20 10.6667H25.3333" stroke="currentColor" stroke-width="2" stroke-linecap="round" stroke-linejoin="round"/>
        <path d="M22.6666 28H9.33329C8.62605 28 7.94777 27.719 7.44767 27.219C6.94758 26.7189 6.66663 26.0406 6.66663 25.3333V6.66667C6.66663 5.95942 6.94758 5.28115 7.44767 4.78105C7.94777 4.28095 8.62605 4 9.33329 4H18.6666L25.3333 10.6667V25.3333C25.3333 26.0406 25.0523 26.7189 24.5522 27.219C24.0521 27.719 23.3739 28 22.6666 28Z" stroke="currentColor" stroke-width="2" stroke-linecap="round" stroke-linejoin="round"/>
    </symbol>

    <symbol viewBox="0 0 32 32" id="icon--close">
        <path d="M24 8L8 24" stroke="currentColor" stroke-width="2" stroke-linecap="round" stroke-linejoin="round"/>
        <path d="M8 8L24 24" stroke="currentColor" stroke-width="2" stroke-linecap="round" stroke-linejoin="round"/>
    </symbol>

    <symbol viewBox="0 0 24 24" id="icon--filter">
        <path d="M3.293 3.293C3.10545 3.48049 3.00006 3.73481 3 4V6.586C3.00006 6.85119 3.10545 7.10551 3.293 7.293L9.707 13.707C9.89455 13.8945 9.99994 14.1488 10 14.414V21L14 17V14.414C14.0001 14.1488 14.1055 13.8945 14.293 13.707L20.707 7.293C20.8946 7.10551 20.9999 6.85119 21 6.586V4C21 3.73478 20.8946 3.48043 20.7071 3.29289C20.5196 3.10536 20.2652 3 20 3H4C3.73481 3.00006 3.48049 3.10545 3.293 3.293Z" stroke="currentColor" stroke-width="2" stroke-linecap="round" stroke-linejoin="round"/>
    </symbol>

    <symbol viewBox="0 0 24 24" id="icon--telegram">
        <g clip-path="url(#clip0_106_6357)">
            <path d="M12 0C8.81812 0 5.76375 1.26506 3.51562 3.51469C1.2652 5.76522 0.000643966 8.81734 0 12C0 15.1813 1.26562 18.2357 3.51562 20.4853C5.76375 22.7349 8.81812 24 12 24C15.1819 24 18.2362 22.7349 20.4844 20.4853C22.7344 18.2357 24 15.1813 24 12C24 8.81869 22.7344 5.76431 20.4844 3.51469C18.2362 1.26506 15.1819 0 12 0Z" fill="url(#paint0_linear_106_6357)"/>
            <path d="M5.43184 11.8732C8.93059 10.3492 11.2631 9.3445 12.4293 8.859C15.7631 7.47281 16.455 7.23206 16.9068 7.2239C17.0062 7.22231 17.2275 7.24687 17.3718 7.36359C17.4918 7.46203 17.5256 7.59515 17.5425 7.68862C17.5575 7.782 17.5781 7.99481 17.5612 8.16093C17.3812 10.0584 16.5993 14.6631 16.2018 16.7884C16.035 17.6876 15.7031 17.9891 15.3825 18.0186C14.685 18.0827 14.1562 17.5581 13.4812 17.1157C12.4256 16.4233 11.8293 15.9924 10.8037 15.3169C9.61872 14.5361 10.3875 14.1069 11.0625 13.4057C11.2387 13.2221 14.31 10.4293 14.3681 10.176C14.3756 10.1443 14.3831 10.0262 14.3118 9.96393C14.2425 9.9015 14.1393 9.92287 14.0643 9.93975C13.9575 9.96375 12.2718 11.079 9.00184 13.2853C8.52372 13.6142 8.09059 13.7745 7.70059 13.7661C7.27309 13.7569 6.44809 13.5238 5.83497 13.3247C5.08497 13.0804 4.48684 12.9512 4.53934 12.5362C4.56559 12.3202 4.86372 12.0992 5.43184 11.8732Z" fill="white"/>
        </g>
        <defs>
            <linearGradient id="paint0_linear_106_6357" x1="1200" y1="0" x2="1200" y2="2400" gradientUnits="userSpaceOnUse">
                <stop stop-color="#2AABEE"/>
                <stop offset="1" stop-color="#229ED9"/>
            </linearGradient>
            <clipPath id="clip0_106_6357">
                <rect width="24" height="24" fill="white"/>
            </clipPath>
        </defs>
    </symbol>

    <symbol viewBox="0 0 24 24" id="icon--whatsapp">
        <g clip-path="url(#clip0_106_6353)">
            <path d="M0.512212 11.8564C0.511649 13.8729 1.04265 15.8418 2.05234 17.5772L0.415649 23.5067L6.53115 21.9156C8.22262 22.8293 10.1178 23.3081 12.0436 23.3082H12.0487C18.4064 23.3082 23.5816 18.1749 23.5844 11.8654C23.5856 8.80801 22.3867 5.93304 20.2085 3.77006C18.0307 1.60727 15.1343 0.415549 12.0482 0.414154C5.68984 0.414154 0.514931 5.54718 0.512306 11.8564" fill="url(#paint0_linear_106_6353)"/>
            <path d="M0.100313 11.8527C0.0996563 13.9417 0.649687 15.981 1.69537 17.7786L0 23.9207L6.33478 22.2726C8.08022 23.2168 10.0454 23.7147 12.0451 23.7154H12.0502C18.636 23.7154 23.9972 18.3975 24 11.8621C24.0011 8.69488 22.7591 5.71656 20.5031 3.47609C18.2468 1.23591 15.2468 0.00130233 12.0502 0C5.46337 0 0.102938 5.31721 0.100313 11.8527ZM3.87291 17.469L3.63637 17.0965C2.64206 15.5277 2.11725 13.7149 2.118 11.8534C2.12006 6.4213 6.57544 2.00186 12.054 2.00186C14.7071 2.00298 17.2005 3.02921 19.0759 4.89116C20.9512 6.7533 21.9831 9.22865 21.9824 11.8614C21.98 17.2935 17.5245 21.7135 12.0502 21.7135H12.0463C10.2638 21.7126 8.51569 21.2376 6.99113 20.34L6.62831 20.1265L2.86912 21.1045L3.87291 17.469Z" fill="url(#paint1_linear_106_6353)"/>
            <path d="M9.06358 6.89749C8.8399 6.40419 8.60449 6.39424 8.39177 6.38559C8.21758 6.37814 8.01846 6.3787 7.81952 6.3787C7.6204 6.3787 7.29687 6.45303 7.0234 6.74931C6.74965 7.04587 5.97827 7.76252 5.97827 9.2201C5.97827 10.6777 7.04824 12.0864 7.1974 12.2843C7.34674 12.4818 9.26299 15.5687 12.2979 16.7562C14.8201 17.7431 15.3334 17.5468 15.8808 17.4973C16.4283 17.448 17.6474 16.7808 17.8961 16.089C18.1451 15.3973 18.1451 14.8044 18.0704 14.6805C17.9958 14.557 17.7967 14.4829 17.4981 14.3348C17.1995 14.1867 15.7315 13.4699 15.4578 13.371C15.1841 13.2722 14.985 13.2229 14.7859 13.5195C14.5868 13.8157 14.015 14.4829 13.8407 14.6805C13.6666 14.8785 13.4923 14.9032 13.1938 14.755C12.8951 14.6063 11.9335 14.2939 10.7926 13.2847C9.90499 12.4994 9.30574 11.5296 9.13155 11.2329C8.95737 10.9367 9.1129 10.7762 9.26262 10.6286C9.39677 10.4958 9.5613 10.2826 9.71074 10.1097C9.85962 9.93666 9.9093 9.81321 10.0089 9.61563C10.1085 9.41786 10.0586 9.24484 9.98412 9.09666C9.9093 8.94847 9.32908 7.48326 9.06358 6.89749Z" fill="white"/>
        </g>
        <defs>
            <linearGradient id="paint0_linear_106_6353" x1="1158.85" y1="2309.67" x2="1158.85" y2="0.414154" gradientUnits="userSpaceOnUse">
                <stop stop-color="#1FAF38"/>
                <stop offset="1" stop-color="#60D669"/>
            </linearGradient>
            <linearGradient id="paint1_linear_106_6353" x1="1200" y1="2392.07" x2="1200" y2="0" gradientUnits="userSpaceOnUse">
                <stop stop-color="#F9F9F9"/>
                <stop offset="1" stop-color="white"/>
            </linearGradient>
            <clipPath id="clip0_106_6353">
                <rect width="24" height="24" fill="white"/>
            </clipPath>
        </defs>
    </symbol>

    <symbol viewBox="0 0 " id="">
    </symbol>
</svg>